<?xml version="1.0" encoding="UTF-8"?>
<svg width="20px" height="20px" viewBox="0 0 20 20" version="1.1" xmlns="http://www.w3.org/2000/svg" xmlns:xlink="http://www.w3.org/1999/xlink">
    <!-- Generator: sketchtool 50.2 (55047) - http://www.bohemiancoding.com/sketch -->
    <title>34AF5381-A170-4931-B918-EFF4749D2FFB</title>
    <desc>Created with sketchtool.</desc>
    <defs/>
    <g id="Page-1" stroke="none" stroke-width="1" fill="none" fill-rule="evenodd">
        <g id="Password-Generator---Generating" transform="translate(-590.000000, -429.000000)" fill="#FFFFFF">
            <g id="Header-Generating" transform="translate(75.000000, 106.000000)">
                <g id="6" transform="translate(515.000000, 323.000000)">
                    <path d="M1.0778693,8.8108091 C1.65980479,4.40232883 5.43257416,1 10,1 C12.7398171,1 15.1936911,2.22426776 16.8444094,4.15559061 L19,2 L19,8 L13,8 L15.4245823,5.57541768 C14.1409482,4.00355604 12.1876707,3 10,3 C6.47352809,3 3.55611852,5.60770586 3.07088886,9 L3.05999756,9 C3.05999756,9.55228475 2.61228231,10 2.05999756,10 C1.50771281,10 1.05999756,9.55228475 1.05999756,9 L1.05492878,9 C1.05714381,8.97996248 1.05942463,8.95994478 1.06177101,8.93994713 C1.06436925,8.89608033 1.06979526,8.85297441 1.0778693,8.8108091 Z M18.9221307,11.1891909 C18.3401952,15.5976712 14.5674258,19 10,19 C7.26018292,19 4.8063089,17.7757322 3.15559061,15.8444094 L1,18 L1,12 L7,12 L4.57541768,14.4245823 C5.85905176,15.996444 7.81232934,17 10,17 C13.5264719,17 16.4438815,14.3922941 16.9291111,11 L16.9400024,11 C16.9400024,10.4477153 17.3877177,10 17.9400024,10 C18.4922872,10 18.9400024,10.4477153 18.9400024,11 L18.9450712,11 C18.9428562,11.0200375 18.9405754,11.0400552 18.938229,11.0600529 C18.9356308,11.1039197 18.9302047,11.1470256 18.9221307,11.1891909 Z" id="Combined-Shape"/>
                </g>
            </g>
        </g>
    </g>
</svg>