<svg height="170" viewBox="0 0 294 170" width="294" xmlns="http://www.w3.org/2000/svg"><g fill="none" fill-rule="evenodd" transform="translate(-3 -1)"><g transform="matrix(.9961947 -.08715574 .08715574 .9961947 .241204 19.813181)"><path d="m20.5222425 66.7068064c-.0073526.0143782-.0147667.0287761-.0222425.0431936-3.5 6.75-25.5 6.25-18.5 3.75 3.77458884-1.3480674 6.13169473-4.1136178 7.07131767-8.2966512-1.79008112-1.4946068-3.26712566-3.3166184-4.39999063-5.4348918-1.74307093-3.2592592-2.67132704-6.4921216-2.67132704-15.407309v-15.722296c0-8.9151874.92825611-12.1480498 2.67132704-15.407309 1.74307092-3.25925929 4.30095667-5.81714504 7.56021596-7.56021596 3.2592592-1.74307093 6.4921216-2.67132704 15.407309-2.67132704h168.722296c8.915187 0 12.14805.92825611 15.407309 2.67132704 3.259259 1.74307092 5.817145 4.30095667 7.560216 7.56021596 1.743071 3.2592592 2.671327 6.4921216 2.671327 15.407309v15.722296c0 8.9151874-.928256 12.1480498-2.671327 15.407309-1.743071 3.2592593-4.300957 5.817145-7.560216 7.560216-3.259259 1.7430709-6.492122 2.671327-15.407309 2.671327h-168.722296c-2.9122063 0-5.2180821-.0990492-7.1166095-.2931936z" fill="#f0f0f0" stroke="#ccc" stroke-linecap="round" stroke-linejoin="round" stroke-width="2"/><path d="m31.1431173 19.7969412-2.9179687 10.0107422h-1.4941406l-3.4541016-12.6826172h1.6523438l2.5224609 10.3095703h.1054687l2.8388672-10.3095703h1.5996094l2.8388672 10.3095703h.1054687l2.522461-10.3095703h1.6523437l-3.4541015 12.6826172h-1.4941407l-2.9179687-10.0107422zm9.7744141 10.0107422v-13.2363281h1.5117188v5.2558593h.140625c.4746093-1.0458984 1.4677734-1.6611328 2.9179687-1.6611328 2.0039063 0 3.2695313 1.2832031 3.2695313 3.506836v6.1347656h-1.5117188v-5.765625c0-1.678711-.7558594-2.5136719-2.1884766-2.5136719-1.696289 0-2.6279296 1.0722656-2.6279296 2.671875v5.6074219zm13.0175781-1.1601563c1.5556641 0 2.7070313-1.0195312 2.7070313-2.3730468v-.8701172l-2.5488281.1669922c-1.4414063.0966796-2.0742188.5976562-2.0742188 1.546875 0 .9667968.8173828 1.5292968 1.9160156 1.5292968zm-.28125 1.3271485c-1.836914 0-3.1992187-1.0898438-3.1992187-2.8212891 0-1.6962891 1.2480469-2.671875 3.4541015-2.8037109l2.7333985-.1669922v-.8613281c0-1.1689454-.7294922-1.8105469-2.1445313-1.8105469-1.133789 0-1.9248047.430664-2.1357422 1.1777344h-1.5292968c.2021484-1.5205079 1.696289-2.522461 3.7177734-2.522461 2.3115234 0 3.6035156 1.1865235 3.6035156 3.1552735v6.4863281h-1.4414062v-1.397461h-.140625c-.6152344 1.0107422-1.6523438 1.5644532-2.9179688 1.5644532zm7.4277344-12.09375h1.5117188v2.4521484h2.109375v1.265625h-2.109375v5.3613281c0 1.116211.421875 1.5908203 1.40625 1.5908203.2724609 0 .421875-.008789.703125-.0351562v1.2744141c-.2988282.0527343-.5888672.0878906-.8876954.0878906-1.9511718 0-2.7333984-.7207031-2.7333984-2.53125v-5.7480469h-1.5292969v-1.265625h1.5292969zm10.0214844 11.9267578v-9.4746094h1.5117187v9.4746094zm.7558594-11.3994141c-.5800782 0-1.0546875-.4746094-1.0546875-1.0546875s.4746093-1.0546875 1.0546875-1.0546875c.5800781 0 1.0546875.4746094 1.0546875 1.0546875s-.4746094 1.0546875-1.0546875 1.0546875zm2.9189453 4.5175781c0-1.5732421 1.5205078-2.7597656 3.5332031-2.7597656 1.9863281 0 3.3662109.984375 3.5683594 2.5400391h-1.4941407c-.2021484-.7558594-.9404296-1.256836-2.0830078-1.256836-1.125 0-2.0039062.5712891-2.0039062 1.4150391 0 .6503906.5273437 1.0546875 1.6435547 1.3271484l1.4589843.3515625c1.7841797.4306641 2.6455079 1.2041016 2.6455079 2.5664063 0 1.6962891-1.6435547 2.8652344-3.796875 2.8652344-2.109375 0-3.5595704-1.0107422-3.7265625-2.5839844h1.555664c.2548828.7998047 1.0107422 1.3095703 2.2236328 1.3095703 1.2744141 0 2.1884766-.6064453 2.1884766-1.4765625 0-.6503906-.4921875-1.0898437-1.5029297-1.3359375l-1.6259766-.3955078c-1.7753906-.4306641-2.5839843-1.1953125-2.5839843-2.5664063zm14.5302734 10.3095704c-.2021484 0-.4658203-.0175782-.6767578-.0527344v-1.2919922c.1845703.0351562.421875.0439453.6328125.0439453.8701172 0 1.3447266-.4130859 1.7402344-1.5556641l.1757812-.5625-3.5068359-9.4833984h1.6347656l2.6015625 7.7958984h.140625l2.5927734-7.7958984h1.6083985l-3.7001953 10.0546875c-.8085938 2.1972656-1.5644532 2.8476563-3.2431641 2.8476563zm12.0068356-3.2607422c-2.6982418 0-4.3681637-1.8632813-4.3681637-4.9042969 0-3.0498047 1.6699219-4.9042969 4.3681637-4.9042969 2.698243 0 4.368164 1.8544922 4.368164 4.9042969 0 3.0410156-1.669921 4.9042969-4.368164 4.9042969zm0-1.3623047c1.792969 0 2.803711-1.3007813 2.803711-3.5419922 0-2.25-1.010742-3.5419922-2.803711-3.5419922-1.7929684 0-2.8037106 1.2919922-2.8037106 3.5419922 0 2.2412109 1.0107422 3.5419922 2.8037106 3.5419922zm13.905274-8.2792969v9.4746094h-1.441406v-1.4853516h-.140625c-.47461 1.0546875-1.485352 1.6523438-2.935547 1.6523438-2.126953 0-3.234375-1.265625-3.234375-3.506836v-6.1347656h1.511718v5.765625c0 1.7050781.632813 2.4960938 2.144532 2.4960938 1.669922 0 2.583984-.9931641 2.583984-2.6542969v-5.6074219zm2.347656 9.4746094v-9.4746094h1.441406v1.40625h.140625c.28125-.9228516 1.371094-1.5732422 2.62793-1.5732422.246094 0 .5625.0175781.755859.0439453v1.5117188c-.123047-.0351563-.667968-.0878906-.966797-.0878906-1.441406 0-2.487304.9667968-2.487304 2.3027343v5.8710938zm10.935547 0v-9.4746094h1.441406v1.4941406h.140625c.430664-1.0546875 1.379883-1.6611328 2.645508-1.6611328 1.283203 0 2.179687.6767578 2.619141 1.6611328h.140625c.509765-1.0019531 1.59082-1.6611328 2.90039-1.6611328 1.933594 0 3.014649 1.1074219 3.014649 3.09375v6.5478516h-1.511719v-6.1962891c0-1.3974609-.65918-2.0830078-1.995117-2.0830078-1.31836 0-2.197266.984375-2.197266 2.1884766v6.0908203h-1.511719v-6.4335938c0-1.125-.782226-1.8457031-1.977539-1.8457031-1.239258 0-2.197265 1.0722656-2.197265 2.4082031v5.8710938zm19.055664.1669922c-2.698242 0-4.368164-1.8632813-4.368164-4.9042969 0-3.0498047 1.669922-4.9042969 4.368164-4.9042969s4.368164 1.8544922 4.368164 4.9042969c0 3.0410156-1.669922 4.9042969-4.368164 4.9042969zm0-1.3623047c1.792969 0 2.803711-1.3007813 2.803711-3.5419922 0-2.25-1.010742-3.5419922-2.803711-3.5419922s-2.803711 1.2919922-2.803711 3.5419922c0 2.2412109 1.010742 3.5419922 2.803711 3.5419922zm6.874023-10.7314453h1.511719v2.4521484h2.109375v1.265625h-2.109375v5.3613281c0 1.116211.421875 1.5908203 1.40625 1.5908203.272461 0 .421875-.008789.703125-.0351562v1.2744141c-.298828.0527343-.588867.0878906-.887695.0878906-1.951172 0-2.733399-.7207031-2.733399-2.53125v-5.7480469h-1.529296v-1.265625h1.529296zm5.494141 11.9267578v-13.2363281h1.511719v5.2558593h.140625c.474609-1.0458984 1.467773-1.6611328 2.917969-1.6611328 2.003906 0 3.269531 1.2832031 3.269531 3.506836v6.1347656h-1.511719v-5.765625c0-1.678711-.755859-2.5136719-2.188477-2.5136719-1.696289 0-2.627929 1.0722656-2.627929 2.671875v5.6074219zm13.878906-8.3056641c-1.511718 0-2.566406 1.1074219-2.680664 2.7861328h5.220703c-.035156-1.6787109-1.037109-2.7861328-2.540039-2.7861328zm2.496094 5.8535156h1.511719c-.457031 1.6259766-1.916016 2.6191407-3.990235 2.6191407-2.627929 0-4.271484-1.8984375-4.271484-4.8955078 0-2.9794922 1.669922-4.913086 4.271484-4.913086 2.557618 0 4.113282 1.819336 4.113282 4.7636719v.5800781h-6.811524v.0703125c.079102 1.8720703 1.125 3.0585938 2.733399 3.0585938 1.221679 0 2.047851-.4482422 2.443359-1.2832032zm3.507813 2.4521485v-9.4746094h1.441406v1.40625h.140625c.28125-.9228516 1.371094-1.5732422 2.627929-1.5732422.246094 0 .5625.0175781.75586.0439453v1.5117188c-.123047-.0351563-.667969-.0878906-.966797-.0878906-1.441406 0-2.487305.9667968-2.487305 2.3027343v5.8710938zm8.754882-7.9453125h-1.098632l.799804-4.7373047h1.713867zm2.198243 1.0634765c0-1.5732421 1.520507-2.7597656 3.533203-2.7597656 1.986328 0 3.366211.984375 3.568359 2.5400391h-1.494141c-.202148-.7558594-.940429-1.256836-2.083007-1.256836-1.125 0-2.003907.5712891-2.003907 1.4150391 0 .6503906.527344 1.0546875 1.643555 1.3271484l1.458984.3515625c1.78418.4306641 2.645508 1.2041016 2.645508 2.5664063 0 1.6962891-1.643554 2.8652344-3.796875 2.8652344-2.109375 0-3.55957-1.0107422-3.726562-2.5839844h1.555664c.254883.7998047 1.010742 1.3095703 2.223633 1.3095703 1.274414 0 2.188476-.6064453 2.188476-1.4765625 0-.6503906-.492187-1.0898437-1.50293-1.3359375l-1.625976-.3955078c-1.775391-.4306641-2.583984-1.1953125-2.583984-2.5664063zm-166.8535161 27.881836v-9.4746094h1.4414063v1.4941406h.140625c.430664-1.0546875 1.3798828-1.6611328 2.6455078-1.6611328 1.2832031 0 2.1796875.6767578 2.6191406 1.6611328h.140625c.5097656-1.0019531 1.5908203-1.6611328 2.9003906-1.6611328 1.9335938 0 3.0146485 1.1074219 3.0146485 3.09375v6.5478516h-1.5117188v-6.1962891c0-1.3974609-.6591797-2.0830078-1.9951172-2.0830078-1.3183594 0-2.1972656.984375-2.1972656 2.1884766v6.0908203h-1.5117188v-6.4335938c0-1.125-.7822265-1.8457031-1.977539-1.8457031-1.2392578 0-2.1972656 1.0722656-2.1972656 2.4082031v5.8710938zm18.0800781-1.1601563c1.5556641 0 2.7070313-1.0195312 2.7070313-2.3730468v-.8701172l-2.5488281.1669922c-1.4414063.0966796-2.0742188.5976562-2.0742188 1.546875 0 .9667968.8173828 1.5292968 1.9160156 1.5292968zm-.28125 1.3271485c-1.836914 0-3.1992187-1.0898438-3.1992187-2.8212891 0-1.6962891 1.2480469-2.671875 3.4541015-2.8037109l2.7333985-.1669922v-.8613281c0-1.1689454-.7294922-1.8105469-2.1445313-1.8105469-1.133789 0-1.9248047.430664-2.1357422 1.1777344h-1.5292968c.2021484-1.5205079 1.696289-2.522461 3.7177734-2.522461 2.3115234 0 3.6035156 1.1865235 3.6035156 3.1552735v6.4863281h-1.4414062v-1.397461h-.140625c-.6152344 1.0107422-1.6523438 1.5644532-2.9179688 1.5644532zm6.8300782-.1669922v-9.4746094h1.5117187v9.4746094zm.7558593-11.3994141c-.5800781 0-1.0546875-.4746094-1.0546875-1.0546875s.4746094-1.0546875 1.0546875-1.0546875c.5800782 0 1.0546875.4746094 1.0546875 1.0546875s-.4746093 1.0546875-1.0546875 1.0546875zm6.6455078 11.5664063c-2.4257812 0-3.9814453-1.9248047-3.9814453-4.9042969 0-2.9707031 1.5732422-4.9042969 3.9814453-4.9042969 1.3183594 0 2.4345704.6240235 2.9707032 1.6611328h.1318359v-5.2558593h1.5117188v13.2363281h-1.4414063v-1.5117188h-.140625c-.5976562 1.0546875-1.7226562 1.678711-3.0322266 1.678711zm.3515625-8.4462891c-1.7226562 0-2.7685546 1.3359375-2.7685546 3.5419922 0 2.2148437 1.0371093 3.5419922 2.7685546 3.5419922 1.7226563 0 2.7861329-1.3535156 2.7861329-3.5419922 0-2.1708984-1.0722657-3.5419922-2.7861329-3.5419922zm10.4775391-.0263672c-1.5117187 0-2.5664062 1.1074219-2.6806641 2.7861328h5.2207032c-.0351563-1.6787109-1.0371094-2.7861328-2.5400391-2.7861328zm2.4960938 5.8535156h1.5117187c-.4570312 1.6259766-1.9160156 2.6191407-3.9902344 2.6191407-2.6279297 0-4.2714843-1.8984375-4.2714843-4.8955078 0-2.9794922 1.6699218-4.913086 4.2714843-4.913086 2.5576172 0 4.1132813 1.819336 4.1132813 4.7636719v.5800781h-6.8115235v.0703125c.0791016 1.8720703 1.125 3.0585938 2.7333985 3.0585938 1.2216797 0 2.0478515-.4482422 2.4433594-1.2832032zm3.5078125 2.4521485v-9.4746094h1.4414062v1.4941406h.140625c.4746094-1.0458984 1.3974609-1.6611328 2.8476563-1.6611328 2.1269531 0 3.3134765 1.256836 3.3134765 3.506836v6.1347656h-1.5117187v-5.765625c0-1.7050781-.7207032-2.5136719-2.2324219-2.5136719-1.5117188 0-2.4873047 1.0107422-2.4873047 2.671875v5.6074219zm14.5830078 0v-9.4746094h1.4414062v1.4941406h.140625c.4746094-1.0458984 1.397461-1.6611328 2.8476563-1.6611328 2.1269531 0 3.3134765 1.256836 3.3134765 3.506836v6.1347656h-1.5117187v-5.765625c0-1.7050781-.7207031-2.5136719-2.2324219-2.5136719-1.5117187 0-2.4873047 1.0107422-2.4873047 2.671875v5.6074219zm12.920898-1.1601563c1.555664 0 2.707032-1.0195312 2.707032-2.3730468v-.8701172l-2.548828.1669922c-1.4414067.0966796-2.0742192.5976562-2.0742192 1.546875 0 .9667968.8173828 1.5292968 1.9160152 1.5292968zm-.2812496 1.3271485c-1.8369141 0-3.1992187-1.0898438-3.1992187-2.8212891 0-1.6962891 1.2480468-2.671875 3.4541013-2.8037109l2.733399-.1669922v-.8613281c0-1.1689454-.729493-1.8105469-2.144532-1.8105469-1.1337887 0-1.9248043.430664-2.1357418 1.1777344h-1.5292969c.2021485-1.5205079 1.6962891-2.522461 3.7177737-2.522461 2.311523 0 3.603515 1.1865235 3.603515 3.1552735v6.4863281h-1.441406v-1.397461h-.140625c-.615234 1.0107422-1.652344 1.5644532-2.9179686 1.5644532zm6.7949216-.1669922v-9.4746094h1.441407v1.4941406h.140625c.430664-1.0546875 1.379882-1.6611328 2.645507-1.6611328 1.283203 0 2.179688.6767578 2.619141 1.6611328h.140625c.509766-1.0019531 1.59082-1.6611328 2.900391-1.6611328 1.933593 0 3.014648 1.1074219 3.014648 3.09375v6.5478516h-1.511719v-6.1962891c0-1.3974609-.659179-2.0830078-1.995117-2.0830078-1.318359 0-2.197266.984375-2.197266 2.1884766v6.0908203h-1.511718v-6.4335938c0-1.125-.782227-1.8457031-1.977539-1.8457031-1.239258 0-2.197266 1.0722656-2.197266 2.4082031v5.8710938zm18.941407-8.3056641c-1.511719 0-2.566407 1.1074219-2.680665 2.7861328h5.220704c-.035157-1.6787109-1.03711-2.7861328-2.540039-2.7861328zm2.496093 5.8535156h1.511719c-.457031 1.6259766-1.916016 2.6191407-3.990234 2.6191407-2.62793 0-4.271485-1.8984375-4.271485-4.8955078 0-2.9794922 1.669922-4.913086 4.271485-4.913086 2.557617 0 4.113281 1.819336 4.113281 4.7636719v.5800781h-6.811524v.0703125c.079102 1.8720703 1.125 3.0585938 2.733399 3.0585938 1.22168 0 2.047851-.4482422 2.443359-1.2832032zm2.78711-6.9169921c.096679-1.8984375 1.362304-3.4101563 3.832031-3.4101563 2.214844 0 3.726562 1.3710938 3.726562 3.1816406 0 1.3798828-.711914 2.3554688-1.836914 3.0322266-1.116211.6591797-1.432617 1.1513672-1.432617 2.0742187v.5712891h-1.538086v-.8085937c-.008789-1.1601563.553711-1.9511719 1.757813-2.671875 1.019531-.6240235 1.415039-1.1777344 1.415039-2.1181641 0-1.0898438-.84375-1.8896484-2.153321-1.8896484-1.327148 0-2.170898.7822265-2.267578 2.0390625zm3.638672 9.5273437c-.711915 0-1.22168-.5097656-1.22168-1.2216797 0-.7207031.509765-1.2304687 1.22168-1.2304687.711914 0 1.21289.5097656 1.21289 1.2304687 0 .7119141-.500976 1.2216797-1.21289 1.2216797z" fill="#323232"/></g><g transform="matrix(.9961947 .08715574 -.08715574 .9961947 86.532099 100)"><path d="m205.080908 41.074816c.919982 4.2549621 3.286531 7.0633567 7.099648 8.425184 6.993126 2.4975451-14.956823 2.9990161-18.489637-3.7301366-1.272865.15251-2.627936.2301366-4.077424.2301366h-167.2269902c-5.0123708 0-8.8957026-.9282561-12.1549618-2.671327-3.25925929-1.743071-5.81714504-4.3009567-7.56021596-7.560216-1.74307093-3.2592592-2.67132704-7.142591-2.67132704-12.1549618v-1.2269904c0-5.0123708.92825611-8.8957026 2.67132704-12.1549618 1.74307092-3.25925929 4.30095667-5.81714504 7.56021596-7.56021596 3.2592592-1.74307093 7.142591-2.67132704 12.1549618-2.67132704h167.2269902c5.012371 0 8.895703.92825611 12.154962 2.67132704 3.259259 1.74307092 5.817145 4.30095667 7.560216 7.56021596 1.743071 3.2592592 2.671327 7.142591 2.671327 12.1549618v1.2269904c0 5.0123708-.928256 8.8957026-2.671327 12.1549618-1.100592 2.0579274-2.526032 3.8362325-4.247765 5.306359z" fill="#cce5ff" stroke="#73ace6" stroke-linecap="round" stroke-linejoin="round" stroke-width="2"/><path d="m21.4485341 22.37997c0-1.5732422 1.5205078-2.7597656 3.5332031-2.7597656 1.9863281 0 3.3662109.984375 3.5683594 2.540039h-1.4941407c-.2021484-.7558593-.9404297-1.2568359-2.0830078-1.2568359-1.125 0-2.0039062.5712891-2.0039062 1.4150391 0 .6503906.5273437 1.0546875 1.6435547 1.3271484l1.4589843.3515625c1.7841797.4306641 2.6455078 1.2041016 2.6455078 2.5664062 0 1.6962891-1.6435546 2.8652344-3.796875 2.8652344-2.109375 0-3.5595703-1.0107422-3.7265625-2.5839844h1.5556641c.2548828.7998047 1.0107422 1.3095704 2.2236328 1.3095704 1.2744141 0 2.1884766-.6064454 2.1884766-1.4765625 0-.6503907-.4921875-1.0898438-1.5029297-1.3359375l-1.6259766-.3955079c-1.7753906-.430664-2.5839843-1.1953125-2.5839843-2.5664062zm9.3349609-5.8007813h4.3505859c3.7617188 0 5.9853516 2.3466797 5.9853516 6.3369141 0 3.9990234-2.2148438 6.3457031-5.9853516 6.3457031h-4.3505859zm1.5820312 1.4238282v9.8349609h2.663086c2.8300781 0 4.4736328-1.8105469 4.4736328-4.9042969 0-3.102539-1.6611328-4.930664-4.4736328-4.930664zm10.1259766 8.296875h1.5732422c.0351562 1.0634765.84375 1.8017578 2.0390625 1.8017578 1.3535156 0 2.1181641-.8261719 2.1181641-2.381836v-9.140625h1.5820312v9.1494141c0 2.4169922-1.3974609 3.8320313-3.6914062 3.8320313-2.1269532 0-3.6210938-1.3183594-3.6210938-3.2607422zm9.1855469 0h1.5732422c.0351562 1.0634765.84375 1.8017578 2.0390625 1.8017578 1.3535156 0 2.118164-.8261719 2.118164-2.381836v-9.140625h1.5820313v9.1494141c0 2.4169922-1.397461 3.8320313-3.6914063 3.8320313-2.1269531 0-3.6210937-1.3183594-3.6210937-3.2607422zm17.7460937 1.5380859v1.4238281h-7.6992187v-12.6826172h1.5820312v11.2587891zm12.147461 1.4238281h-1.5820313v-5.774414h-6.9609375v5.774414h-1.5820312v-12.6826172h1.5820312v5.484375h6.9609375v-5.484375h1.5820313zm3.0859375-8.7099609v-1.6347656l7.734375 4.4736328v1.2480469l-7.734375 4.4736328v-1.6347657l6.2226562-3.3925781v-.140625zm13.4570312 5.1328125h-.140625l-2.25 3.5771484h-1.7138672l3.2431641-4.7373047-3.2783203-4.7373046h1.8017578l2.25 3.524414h.140625l2.2236325-3.524414h1.713867l-3.2167964 4.6757812 3.2607424 4.7988281h-1.792969zm10.3105469 3.7441406c-1.318359 0-2.443359-.6240234-3.041016-1.6787109h-.140625v1.5117187h-1.441406v-13.2363281h1.511719v5.2558594h.140625c.518555-1.0195313 1.669922-1.6611328 2.970703-1.6611328 2.408203 0 3.972656 1.9248047 3.972656 4.9042968 0 2.9619141-1.573242 4.9042969-3.972656 4.9042969zm-.351563-8.446289c-1.722656 0-2.794921 1.3535156-2.794921 3.5419921 0 2.1884766 1.072265 3.5419922 2.794921 3.5419922 1.731446 0 2.759766-1.3271484 2.759766-3.5419922 0-2.2148437-1.02832-3.5419921-2.759766-3.5419921zm10.741211 8.2792968h-1.564453l-4.675781-12.6826172h1.661133l3.726562 10.6347657h.140625l3.726563-10.6347657h1.661133zm9.299805-3.5771484h-.140625l-2.25 3.5771484h-1.713867l3.243164-4.7373047-3.27832-4.7373046h1.801757l2.25 3.524414h.140625l2.223633-3.524414h1.713867l-3.216796 4.6757812 3.260742 4.7988281h-1.792969zm8.183594-2.2675781v-1.3535157h1.538086c1.441406 0 2.460937-.9316406 2.460937-2.25 0-1.2919921-.975586-2.1533203-2.43457-2.1533203s-2.416992.8085938-2.548828 2.1708985h-1.538086c.158203-2.1972657 1.731445-3.5507813 4.148437-3.5507813 2.214844 0 3.981446 1.4765625 3.981446 3.3222656 0 1.5117188-.834961 2.6191407-2.223633 2.953125v.140625c1.722656.2197266 2.768555 1.4150391 2.768555 3.1464844 0 2.0917969-1.959961 3.7177735-4.464844 3.7177735-2.575195 0-4.350586-1.4326172-4.464844-3.6035157h1.529297c.140625 1.3535157 1.283203 2.2236328 2.917969 2.2236328 1.669922 0 2.856445-.993164 2.856445-2.3818359 0-1.4677734-1.116211-2.3818359-2.917969-2.3818359zm9.009765 9.2724609c-.202148 0-.46582-.0175781-.676757-.0527344v-1.2919922c.18457.0351563.421875.0439454.632812.0439454.870117 0 1.344727-.413086 1.740235-1.5556641l.175781-.5625-3.506836-9.4833984h1.634765l2.601563 7.7958984h.140625l2.592773-7.7958984h1.608399l-3.700195 10.0546875c-.808594 2.1972656-1.564454 2.8476562-3.243165 2.8476562zm13.606446-3.4277344h-4.948242v-12.6826172h4.851562c2.329102 0 3.75293 1.2216797 3.75293 3.1640625 0 1.3183594-.966797 2.5136719-2.188477 2.7333985v.140625c1.731446.2197265 2.830078 1.40625 2.830078 3.0849609 0 2.2324219-1.599609 3.5595703-4.297851 3.5595703zm-3.366211-11.2851562v4.0693359h2.53125c1.916015 0 2.891601-.6855469 2.891601-2.0302734 0-1.2919922-.914062-2.0390625-2.487304-2.0390625zm0 9.8876953h3.128906c1.907227 0 2.90918-.7734375 2.90918-2.2412109 0-1.4677735-1.03711-2.2148438-3.058594-2.2148438h-2.979492zm11.101562-8.0771484v9.9404296c0 1.9511719-.914062 2.7861329-2.90039 2.7861329h-.263672v-1.2919922h.228515c1.072266 0 1.423829-.421875 1.423829-1.4677735v-9.9667968zm-.755859-1.9248047c-.580078 0-1.054688-.4746094-1.054688-1.0546875 0-.5800782.47461-1.0546875 1.054688-1.0546875s1.054687.4746093 1.054687 1.0546875c0 .5800781-.474609 1.0546875-1.054687 1.0546875zm6.917969 3.09375c-1.511719 0-2.566407 1.1074218-2.680664 2.7861328h5.220703c-.035156-1.678711-1.03711-2.7861328-2.540039-2.7861328zm2.496093 5.8535156h1.511719c-.457031 1.6259766-1.916015 2.6191406-3.990234 2.6191406-2.62793 0-4.271485-1.8984375-4.271485-4.8955078 0-2.9794922 1.669922-4.9130859 4.271485-4.9130859 2.557617 0 4.113281 1.8193359 4.113281 4.7636718v.5800782h-6.811523v.0703125c.079101 1.8720703 1.125 3.0585937 2.733398 3.0585937 1.22168 0 2.047852-.4482422 2.443359-1.2832031zm3.542969 2.4521484v-9.4746093h1.511719v9.4746093zm.75586-11.399414c-.580079 0-1.054688-.4746094-1.054688-1.0546875 0-.5800782.474609-1.0546875 1.054688-1.0546875.580078 0 1.054687.4746093 1.054687 1.0546875 0 .5800781-.474609 1.0546875-1.054687 1.0546875zm3.332031-1.2832032h4.790039c2.399414 0 4.060547 1.6875 4.060547 4.1044922 0 2.3730469-1.696289 4.0517578-4.078125 4.0517578h-3.19043v4.5263672h-1.582031zm1.582031 1.40625v5.34375h2.794922c1.801758 0 2.847656-.9667968 2.847656-2.6455078 0-1.7402343-1.010742-2.6982422-2.847656-2.6982422z" fill="#323232"/></g></g></svg>