<svg width="640" height="134" xmlns="http://www.w3.org/2000/svg" xmlns:xlink="http://www.w3.org/1999/xlink"><defs><path d="M258.085 46C266.556 19.326 291.52 0 321 0s54.444 19.326 62.915 46H641v40H383.915c-8.471 26.674-33.436 46-62.915 46s-54.444-19.326-62.915-46H0V46h258.085z" id="a"/><filter x="-.2%" y="-1.1%" width="100.5%" height="102.3%" filterUnits="objectBoundingBox" id="b"><feOffset dy="1" in="SourceAlpha" result="shadowOffsetInner1"/><feComposite in="shadowOffsetInner1" in2="SourceAlpha" operator="arithmetic" k2="-1" k3="1" result="shadowInnerInner1"/><feColorMatrix values="0 0 0 0 1 0 0 0 0 1 0 0 0 0 1 0 0 0 0.231799139 0" in="shadowInnerInner1"/></filter><linearGradient x1="50%" y1="0%" x2="50%" y2="100%" id="c"><stop stop-color="#0073E5" offset="0%"/><stop stop-color="#00B9F9" offset="100%"/></linearGradient><radialGradient fx="50%" fy="50%" r="45.961%" id="d"><stop stop-color="#FFF" stop-opacity="0" offset="0%"/><stop stop-color="#FFF" stop-opacity="0" offset="87.735%"/><stop stop-color="#FFF" stop-opacity=".85" offset="88.013%"/><stop stop-color="#FFF" offset="100%"/></radialGradient><path d="M58 1c31.48 0 57 25.52 57 57s-25.52 57-57 57S1 89.48 1 58 26.52 1 58 1zm0 103c25.405 0 46-20.595 46-46S83.405 12 58 12 12 32.595 12 58s20.595 46 46 46z" id="f"/><filter x="-8.8%" y="-7%" width="117.5%" height="117.5%" filterUnits="objectBoundingBox" id="e"><feOffset dy="2" in="SourceAlpha" result="shadowOffsetOuter1"/><feGaussianBlur stdDeviation="3" in="shadowOffsetOuter1" result="shadowBlurOuter1"/><feColorMatrix values="0 0 0 0 0 0 0 0 0 0 0 0 0 0 0 0 0 0 0.25 0" in="shadowBlurOuter1"/></filter><path d="M58 42c8.836 0 16 7.163 16 16 0 8.836-7.164 16-16 16-8.837 0-16-7.164-16-16 0-8.837 7.163-16 16-16z" id="g"/><filter x="-28.1%" y="-28.1%" width="156.2%" height="156.2%" filterUnits="objectBoundingBox" id="h"><feGaussianBlur stdDeviation="4" in="SourceAlpha" result="shadowBlurInner1"/><feOffset dy="8" in="shadowBlurInner1" result="shadowOffsetInner1"/><feComposite in="shadowOffsetInner1" in2="SourceAlpha" operator="arithmetic" k2="-1" k3="1" result="shadowInnerInner1"/><feColorMatrix values="0 0 0 0 0 0 0 0 0 0 0 0 0 0 0 0 0 0 0.07 0" in="shadowInnerInner1" result="shadowMatrixInner1"/><feMorphology radius="1" in="SourceAlpha" result="shadowSpreadInner2"/><feOffset dy="1" in="shadowSpreadInner2" result="shadowOffsetInner2"/><feComposite in="shadowOffsetInner2" in2="SourceAlpha" operator="arithmetic" k2="-1" k3="1" result="shadowInnerInner2"/><feColorMatrix values="0 0 0 0 0 0 0 0 0 0 0 0 0 0 0 0 0 0 0.07 0" in="shadowInnerInner2" result="shadowMatrixInner2"/><feMerge><feMergeNode in="shadowMatrixInner1"/><feMergeNode in="shadowMatrixInner2"/></feMerge></filter><path d="M50 47.094V34a2 2 0 0 1 2-2h12a2 2 0 0 1 2 2v25.773a2 2 0 0 1-.565 1.393l-1.729 1.78a2 2 0 0 0 0 2.787l1.729 1.78A2 2 0 0 1 66 68.906V82a2 2 0 0 1-2 2H52a2 2 0 0 1-2-2V56.227a2 2 0 0 1 .565-1.393l1.729-1.78a2 2 0 0 0 0-2.787l-1.729-1.78A2 2 0 0 1 50 47.094z" id="i"/><filter x="-78.1%" y="-24%" width="256.2%" height="148.1%" filterUnits="objectBoundingBox" id="j"><feMorphology radius="1" in="SourceAlpha" result="shadowSpreadInner1"/><feGaussianBlur stdDeviation="8" in="shadowSpreadInner1" result="shadowBlurInner1"/><feOffset dy="8" in="shadowBlurInner1" result="shadowOffsetInner1"/><feComposite in="shadowOffsetInner1" in2="SourceAlpha" operator="arithmetic" k2="-1" k3="1" result="shadowInnerInner1"/><feColorMatrix values="0 0 0 0 0 0 0 0 0 0 0 0 0 0 0 0 0 0 0.6 0" in="shadowInnerInner1"/></filter></defs><g fill="none" fill-rule="evenodd"><g transform="translate(-1 1)"><use fill="#FAFCFF" xlink:href="#a"/><use fill="#000" filter="url(#b)" xlink:href="#a"/><path stroke-opacity=".149" stroke="#000" d="M257.72 45.5c8.802-27.195 34.223-46 63.28-46 29.057 0 54.478 18.805 63.28 46H641.5v41H384.28c-8.802 27.195-34.223 46-63.28 46-29.057 0-54.478-18.805-63.28-46H-.5v-41h258.22z"/></g><path fill-opacity=".15" fill="#000" d="M0 66h640v2H0z"/><g transform="translate(262 9)"><circle fill="#666" cx="58" cy="58" r="56"/><circle cx="56" cy="56" r="56" transform="translate(2 2)" fill="url(#c)"/><path d="M58 1C26.52 1 1 26.52 1 58s25.52 57 57 57 57-25.52 57-57S89.48 1 58 1z" fill="url(#d)"/><path d="M58 0c32.032 0 58 25.967 58 58s-25.967 58-58 58S0 90.033 0 58 25.968 0 58 0zm0 103c24.853 0 45-20.147 45-45S82.853 13 58 13 13 33.147 13 58s20.147 45 45 45z" fill-opacity=".3" fill="#000" fill-rule="nonzero"/><g><use fill="#000" filter="url(#e)" xlink:href="#f"/><use fill="#FFF" xlink:href="#f"/></g><path d="M3.326 41.83A56.2 56.2 0 0 0 2 54c0 30.928 25.072 56 56 56s56-25.072 56-56a56.2 56.2 0 0 0-1.326-12.17A57.014 57.014 0 0 1 115 58c0 31.48-25.52 57-57 57S1 89.48 1 58c0-5.617.812-11.044 2.326-16.17z" fill-opacity=".03" fill="#000"/><path d="M21.483 91.155C13.12 82.217 8 70.206 8 57 8 29.386 30.386 7 58 7s50 22.386 50 50c0 13.206-5.12 25.217-13.483 34.155A47.81 47.81 0 0 0 106 60c0-26.51-21.49-48-48-48S10 33.49 10 60a47.81 47.81 0 0 0 11.483 31.155z" fill-opacity=".05" fill="#000"/><path d="M58 23c-19.33 0-35 15.67-35 35s15.67 35 35 35 35-15.67 35-35-15.67-35-35-35z" fill="#FFF" fill-rule="nonzero"/><path d="M58 23c-19.33 0-35 15.67-35 35s15.67 35 35 35 35-15.67 35-35-15.67-35-35-35zm0-1c19.882 0 36 16.118 36 36S77.882 94 58 94 22 77.882 22 58s16.118-36 36-36z" fill="#006EB2" fill-rule="nonzero"/><g><use fill-opacity=".03" fill="#000" xlink:href="#g"/><use fill="#000" filter="url(#h)" xlink:href="#g"/><path stroke-opacity=".6" stroke="#FFF" d="M58 41.5c9.113 0 16.5 7.387 16.5 16.5S67.112 74.5 58 74.5c-9.113 0-16.5-7.387-16.5-16.5S48.887 41.5 58 41.5z"/></g><g><use fill="#606B73" xlink:href="#i"/><use fill="#000" filter="url(#j)" xlink:href="#i"/></g><path d="M51 47.094a1 1 0 0 0 .283.697l1.728 1.78a3 3 0 0 1 0 4.18l-1.728 1.78a1 1 0 0 0-.283.696V82a1 1 0 0 0 1 1h12a1 1 0 0 0 1-1V68.906a1 1 0 0 0-.283-.697l-1.728-1.78a3 3 0 0 1 0-4.18l1.728-1.78a1 1 0 0 0 .283-.696V34a1 1 0 0 0-1-1H52a1 1 0 0 0-1 1v13.094zm-1 0V34a2 2 0 0 1 2-2h12a2 2 0 0 1 2 2v25.773a2 2 0 0 1-.565 1.393l-1.729 1.78a2 2 0 0 0 0 2.787l1.729 1.78A2 2 0 0 1 66 68.906V82a2 2 0 0 1-2 2H52a2 2 0 0 1-2-2V56.227a2 2 0 0 1 .565-1.393l1.729-1.78a2 2 0 0 0 0-2.787l-1.729-1.78A2 2 0 0 1 50 47.094z" fill-opacity=".6" fill="#000" fill-rule="nonzero"/></g></g></svg>