<svg width="587" height="451" xmlns="http://www.w3.org/2000/svg"><g fill="#367AA3" fill-rule="evenodd"><path d="M263.375 120.052l156.75 90.5c-3.944-32.205-24.185-63.616-56.875-82.49-32.694-18.876-70.013-20.697-99.875-8.01M225.539 149.014a83.485 83.485 0 0 0-5.994 8.953l-16.125 27.929 188.794 109 16.125-27.93a83.485 83.485 0 0 0 4.756-9.666L225.54 149.014zM165.295 251.93a83.485 83.485 0 0 0-4.756 9.667l187.556 108.286a83.485 83.485 0 0 0 5.994-8.953L370.214 333 181.42 224l-16.125 27.93zM211.25 391.334c32.69 18.874 70.013 20.698 99.875 8.011l-156.75-90.5c3.944 32.205 24.18 63.613 56.875 82.49M89.519 46.429c-9.956-1.32-20.335-.803-30.624 1.932A78.213 78.213 0 0 0 31.4 61.854c-8.261 6.319-15.112 14.14-20.204 22.983a77.777 77.777 0 0 0-9.807 28.998c-1.3 9.956-.734 20.28 2.061 30.557 2.772 10.295 7.516 19.53 13.626 27.5a78.825 78.825 0 0 0 22.995 20.153l.137.08.136.078a78.514 78.514 0 0 0 28.958 9.816c9.97 1.34 20.32.807 30.617-1.93a78.077 78.077 0 0 0 27.503-13.488L269.286 73.813 89.52 46.429zM586.144 382.135c1.29-9.924.74-20.252-2.036-30.543-2.762-10.27-7.485-19.506-13.59-27.46l-113.303-141.82-26.862 179.184a78.109 78.109 0 0 0 2.039 30.55 77.987 77.987 0 0 0 13.587 27.452c6.318 8.214 14.121 15.05 22.93 20.135l.141.082.137.079c8.822 5.094 18.651 8.444 28.901 9.814 9.935 1.295 20.297.775 30.578-1.978a77.779 77.779 0 0 0 27.472-13.512c8.244-6.316 15.09-14.127 20.199-22.998a78.127 78.127 0 0 0 9.807-28.985M326.619 81.51c20.804 12.011 47.405 4.892 59.422-15.922 12.017-20.814 4.882-47.41-15.922-59.422-20.805-12.012-47.406-4.892-59.423 15.922-12.016 20.814-4.882 47.41 15.923 59.422M421.015 136.01c20.805 12.011 47.406 4.892 59.422-15.922 12.017-20.814 4.883-47.41-15.922-59.422-20.804-12.012-47.405-4.892-59.422 15.922-12.017 20.814-4.882 47.41 15.922 59.422"/></g></svg>