<svg width="1200" height="595" xmlns="http://www.w3.org/2000/svg" xmlns:xlink="http://www.w3.org/1999/xlink"><defs><path id="c" d="M0 0h1200v597H0z"/><rect id="a" x=".179" y="37.45" width="100.821" height="92.581" rx="3"/><mask id="e" x="0" y="0" width="100.821" height="92.581" fill="#fff"><use xlink:href="#a"/></mask><rect id="b" x=".055" y="10.825" width="72.201" height="65.723" rx="3"/><mask id="f" x="0" y="0" width="72.201" height="65.723" fill="#fff"><use xlink:href="#b"/></mask><path d="M42.957 223.28l2.45-3.252h3.853c1.473 9.148 5.635 15.958 12.488 20.43 10.278 6.708 23.768 16.853 23.768 28.927-10.588 3.382-27.29 4.306-42.56 4.168-15.268.138-31.97-.786-42.559-4.168 0-12.074 13.49-22.22 23.769-28.927 6.852-4.472 11.015-11.282 12.487-20.43h3.853l2.45 3.253zm-5.329-3.252h10.154v6.72H37.628v-6.72z" id="g"/><rect id="j" width="128" height="114" rx="16"/><filter x="-66.4%" y="-57%" width="232.8%" height="249.1%" filterUnits="objectBoundingBox" id="i"><feMorphology radius="5" operator="dilate" in="SourceAlpha" result="shadowSpreadOuter1"/><feOffset dy="20" in="shadowSpreadOuter1" result="shadowOffsetOuter1"/><feGaussianBlur stdDeviation="20" in="shadowOffsetOuter1" result="shadowBlurOuter1"/><feColorMatrix values="0 0 0 0 0.459 0 0 0 0 0.49045 0 0 0 0 0.51 0 0 0 0.2 0" in="shadowBlurOuter1"/></filter><rect id="l" y="103" width="128" height="24" rx="12"/><filter x="-66.4%" y="-270.8%" width="232.8%" height="808.3%" filterUnits="objectBoundingBox" id="k"><feMorphology radius="5" operator="dilate" in="SourceAlpha" result="shadowSpreadOuter1"/><feOffset dy="20" in="shadowSpreadOuter1" result="shadowOffsetOuter1"/><feGaussianBlur stdDeviation="20" in="shadowOffsetOuter1" result="shadowBlurOuter1"/><feColorMatrix values="0 0 0 0 0.459 0 0 0 0 0.49045 0 0 0 0 0.51 0 0 0 0.2 0" in="shadowBlurOuter1"/></filter><rect id="n" x="37" y="117" width="38" height="64" rx="16"/><filter x="-223.7%" y="-101.6%" width="547.4%" height="365.6%" filterUnits="objectBoundingBox" id="m"><feMorphology radius="5" operator="dilate" in="SourceAlpha" result="shadowSpreadOuter1"/><feOffset dy="20" in="shadowSpreadOuter1" result="shadowOffsetOuter1"/><feGaussianBlur stdDeviation="20" in="shadowOffsetOuter1" result="shadowBlurOuter1"/><feColorMatrix values="0 0 0 0 0.459 0 0 0 0 0.49045 0 0 0 0 0.51 0 0 0 0.2 0" in="shadowBlurOuter1"/></filter><path d="M613 541c.63 17.895 2.52 28.786 5.671 32.673 4.726 5.83 30.17-9.673 34.329-9.673 4.159 0 28.053 6 39.395 6 7.561 0 8.821-26.333 3.78-79L613 541z" id="o"/><filter x="-5.2%" y="-5.4%" width="110.4%" height="110.7%" filterUnits="objectBoundingBox" id="p"><feOffset dy="-9" in="SourceAlpha" result="shadowOffsetInner1"/><feComposite in="shadowOffsetInner1" in2="SourceAlpha" operator="arithmetic" k2="-1" k3="1" result="shadowInnerInner1"/><feColorMatrix values="0 0 0 0 0 0 0 0 0 0 0 0 0 0 0 0 0 0 0.121235281 0" in="shadowInnerInner1"/></filter><path d="M40.68 7.427S37.018.95 31.707.207c-3.949-.55-8.602.128-10.73.512-2.13-.384-6.783-1.063-10.732-.511-5.31.742-8.973 7.22-8.973 7.22S-.56 25.44.173 34.347c.732 8.905 3.846 17.625 9.523 21.336 4.242 2.774 9.098 3.06 11.28 3.028 2.183.032 7.038-.254 11.28-3.028 5.678-3.71 8.79-12.431 9.523-21.337.733-8.906-1.099-26.92-1.099-26.92" id="q"/><path d="M17.426 4.49l13.85-1.181a8.4 8.4 0 0 1 9.113 8.373l-.024 56.809c-.001 3.563-.345 4.857-1.004 6.18a7.607 7.607 0 0 1-2.896 3.152c-1.262.769-2.523 1.22-6.073 1.523l-13.85 1.18a8.4 8.4 0 0 1-9.113-8.372l.024-56.81c.001-3.562.345-4.857 1.004-6.18a7.607 7.607 0 0 1 2.896-3.152c1.262-.769 2.523-1.22 6.073-1.523z" id="s"/><filter x="-16.7%" y="-7.1%" width="133.4%" height="114.2%" filterUnits="objectBoundingBox" id="t"><feOffset dy="11" in="SourceAlpha" result="shadowOffsetInner1"/><feComposite in="shadowOffsetInner1" in2="SourceAlpha" operator="arithmetic" k2="-1" k3="1" result="shadowInnerInner1"/><feColorMatrix values="0 0 0 0 0 0 0 0 0 0 0 0 0 0 0 0 0 0 0.162562274 0" in="shadowInnerInner1"/></filter><path d="M54.395 1.206l10.754 1.206c4.167 0 5.666.392 7.168 1.127 1.502.736 2.665 1.815 3.44 3.191.774 1.376 1.167 2.74 1.056 6.503L72.54 71.179c-.11 3.763-.585 5.127-1.44 6.503-.856 1.375-2.083 2.455-3.628 3.19-1.545.736-3.068 1.128-7.235 1.128l-8.083-4.824c-4.167 0-5.666-.391-7.168-1.127-1.502-.736-2.665-1.815-3.44-3.19-.774-1.376-1.167-2.74-1.056-6.504l1.602-54.328c.11-3.763.585-5.127 1.44-6.503.856-1.375 2.083-2.455 3.628-3.19 1.545-.736 3.068-1.128 7.235-1.128z" id="u"/><filter x="-15.1%" y="-6.8%" width="130.3%" height="113.6%" filterUnits="objectBoundingBox" id="v"><feOffset dy="11" in="SourceAlpha" result="shadowOffsetInner1"/><feComposite in="shadowOffsetInner1" in2="SourceAlpha" operator="arithmetic" k2="-1" k3="1" result="shadowInnerInner1"/><feColorMatrix values="0 0 0 0 0 0 0 0 0 0 0 0 0 0 0 0 0 0 0.162562274 0" in="shadowInnerInner1"/></filter></defs><g transform="translate(0 -2)" fill="none" fill-rule="evenodd"><mask id="d" fill="#fff"><use xlink:href="#c"/></mask><g fill-rule="nonzero" mask="url(#d)"><path d="M275-114h640.743c11.695 18.052 19.459 48.436 23.292 91.154-64.348-14.706-109.619-14.706-135.813 0L984.668 443.66c217.215-8.948 346.951-.665 389.207 24.85 42.255 25.516 38.532 90.346-11.171 194.489l-745.014-6.197L324.385-2.92V-114H275z" fill="#B4D8C5" opacity=".5"/><path fill="#ECF5F0" d="M1058 166h207.208v209H1058z"/><path d="M1277 196.339h-207.208v-18.54H1277v18.54zm0 3.37v163.493h-114.554V199.71H1277zm-117.923 163.493h-89.285V199.71h89.285v163.492z" fill="#B4D8C5"/></g><path d="M-80 241c82.205 89.833 204.6 134.75 367.185 134.75 243.877 0 393.492-207.91 767-207.91s679.352 216.16 810 216.16" stroke="#8EC4A7" stroke-width="2" stroke-dasharray="6" mask="url(#d)"/><g mask="url(#d)"><g transform="translate(897.92 245.88)"><use stroke="#ECF5F0" mask="url(#e)" stroke-width="3" stroke-dasharray="6,6" fill-rule="nonzero" xlink:href="#a"/><g transform="translate(12.94)"><rect stroke="#B4D8C5" stroke-width="3" fill="#FFF" x="1.696" y="1.5" width="127.397" height="108.049" rx="9"/><path d="M61.103 67.422h48.813a2.644 2.644 0 1 1 0 5.289H61.103a2.644 2.644 0 0 1 0-5.289zm0 13.22h48.813a2.644 2.644 0 1 1 0 5.289H61.103a2.644 2.644 0 0 1 0-5.288z" fill="#8EC4A7" fill-rule="nonzero"/><path d="M47.487 20.508H76.01a2.644 2.644 0 1 1 0 5.288H47.487a2.644 2.644 0 1 1 0-5.288zm0 9.22h56.267a2.644 2.644 0 1 1 0 5.288H47.487a2.644 2.644 0 1 1 0-5.288zM26.64 18.12a9.5 9.5 0 1 1 0 19 9.5 9.5 0 0 1 0-19z" fill="#D1E8FF" fill-rule="nonzero"/><path d="M28.225 86.968c.48-.483 1.052-.43 1.164.052.07.297.69 3.004.774 3.376.085.372.534.384.715.2l.781-.785a.865.865 0 0 0 .247-.547c.004-.19.008-3.124.01-3.464.003-.34.082-.507.303-.73.22-.223 4.97-5.096 5.259-5.386.29-.293.875-.404 1.113.321.237.727 3.227 9.088 3.47 9.847a.856.856 0 0 0 1.419.412l.345-.346a.888.888 0 0 0 .249-.607c.003-.206-.001-14.527 0-15.231.001-.705.464-1.352.826-1.717.363-.366 1.817-2.048 3.559-3.801 1.741-1.754 1.336-3.844.88-4.174-.454-.33-2.615-.675-4.358 1.078-1.741 1.754-3.238 3.158-3.601 3.523-.362.366-1.027.756-1.726.758-.7 0-14.933-.004-15.137 0a.873.873 0 0 0-.605.249l-.343.347a.866.866 0 0 0 .409 1.429c.755.244 9.079 2.964 9.8 3.204.722.239.61.828.321 1.12-.29.29-4.927 5.048-5.148 5.27-.222.223-.386.302-.726.304-.338.004-3.458.216-3.646.219a.856.856 0 0 0-.543.249l-.78.785c-.183.184-.17.634.2.72.368.086 3.058.71 3.353.78.478.113.53.688.051 1.17-.534.538-.65 1.396-.335 1.712.314.317 1.166.201 1.7-.337z" fill="#8EC4A7"/><path d="M.196 99.15h9.485a3 3 0 0 1 3 3v8.899H3.196a3 3 0 0 1-3-3V99.15z" fill="#B4D8C5" fill-rule="nonzero"/></g></g><g transform="translate(499.799 382.44)"><use stroke="#76BAFF" mask="url(#f)" stroke-width="3" stroke-dasharray="6,6" fill-rule="nonzero" xlink:href="#b"/><g transform="translate(12.828)"><rect fill="#D9EBE2" fill-rule="nonzero" x=".005" y=".409" width="75.41" height="65.723" rx="3"/><path d="M11.027 37.965h53.366a3 3 0 0 1 3 3v9.648a3 3 0 0 1-3 3H11.027a3 3 0 0 1-3-3v-9.648a3 3 0 0 1 3-3zm24.633-22.69h31.366a1.565 1.565 0 1 1 0 3.13H35.659a1.565 1.565 0 1 1 0-3.13zm0 7.824h23.343a1.565 1.565 0 1 1 0 3.13H35.66a1.565 1.565 0 0 1 0-3.13z" fill="#B4D8C5" fill-rule="nonzero"/><path d="M27.556 33h-15.89V9h15.89C28.9 9 30 10.08 30 11.4v19.2c0 1.32-1.1 2.4-2.444 2.4" fill="#B4D8C5"/><path d="M10.444 9h1.223v24h-1.223C9.1 33 8 31.92 8 30.6V11.4C8 10.08 9.1 9 10.444 9" fill="#8EC4A7"/><path d="M20.222 15c-3.36 0-6.11 2.7-6.11 6s2.75 6 6.11 6c3.361 0 6.111-2.7 6.111-6s-2.75-6-6.11-6zm3.667 7.2h-2.445v2.4H19v-2.4h-2.444v-2.4H19v-2.4h2.444v2.4h2.445v2.4z" fill="#FFF" fill-rule="nonzero"/></g></g><g transform="translate(554.102 179)"><rect fill="#FFF" fill-rule="nonzero" x=".008" y=".49" width="269.117" height="118.981" rx="6"/><path d="M77.524 13.71h58.524a2.644 2.644 0 1 1 0 5.288H77.524a2.644 2.644 0 0 1 0-5.288zm0 13.22h86.268a2.644 2.644 0 0 1 0 5.288H77.524a2.644 2.644 0 0 1 0-5.288zM42.857 15.747a16.925 16.925 0 0 0-1.977 7.963c0 2.878.715 5.588 1.977 7.964a11.97 11.97 0 0 1-8.977 4.036c-6.627 0-12-5.372-12-12 0-6.627 5.373-12 12-12a11.97 11.97 0 0 1 8.977 4.037zM55.88 35.71c-6.627 0-12-5.372-12-12 0-6.627 5.373-12 12-12 6.628 0 12 5.373 12 12 0 6.628-5.372 12-12 12zM26.524 99.64h198.631a2.644 2.644 0 0 1 0 5.289H26.525a2.644 2.644 0 0 1 0-5.288z" fill="#D1E8FF" fill-rule="nonzero"/><path fill="#F8D772" d="M39.898 51.1l-16 15.138h4.364V80h7.273V69.296h8.727V80h7.273V66.238h4.363l-5.818-5.504v-6.729h-2.909v3.976z"/><path d="M89.785 53.97c-2.425 0-3.432 1.538-4.393 4.594-.8 2.548-1.944 6.16-2.425 7.656h-.503c-.806 0-1.464.688-1.464 1.53v7.657c0 .843.658 1.53 1.464 1.53v1.532c0 .843.658 1.531 1.464 1.531h2.929c.806 0 1.464-.688 1.464-1.531v-1.531h14.641v1.53c0 .844.658 1.532 1.464 1.532h2.929c.806 0 1.464-.688 1.464-1.531v-1.531c.806 0 1.464-.688 1.464-1.531V67.75c0-.843-.658-1.531-1.464-1.531h-.504a653.294 653.294 0 0 1-2.425-7.656c-.932-3.014-1.967-4.593-4.392-4.593H89.785zm0 3.063h11.713c.469 0 .84.018 1.601 2.488.378 1.22 1.802 5.622 2.15 6.699H86.126c.331-1.077 1.67-5.473 2.058-6.699.784-2.488 1.104-2.488 1.602-2.488zm-3.66 11.818c1.43 0 2.608 1.233 2.608 2.728s-1.179 2.727-2.608 2.727c-1.43 0-2.608-1.232-2.608-2.727 0-1.495 1.178-2.728 2.608-2.728zm19.033 0c1.43 0 2.608 1.233 2.608 2.728s-1.178 2.727-2.608 2.727c-1.43 0-2.608-1.232-2.608-2.727 0-1.495 1.179-2.728 2.608-2.728z" fill="#99C2EB" fill-rule="nonzero"/><path d="M146.376 55.055a12.4 12.4 0 0 0-7.388 2.439l3.593 3.593a7.443 7.443 0 0 1 3.795-1.043c1.387 0 2.682.386 3.796 1.043l3.593-3.593a12.408 12.408 0 0 0-7.389-2.439zm-10.034 5.084a12.4 12.4 0 0 0-2.438 7.389 12.4 12.4 0 0 0 2.438 7.388l3.594-3.593a7.43 7.43 0 0 1 0-7.59l-3.594-3.594zm20.068 0l-3.593 3.593a7.43 7.43 0 0 1 0 7.59l3.593 3.594a12.4 12.4 0 0 0 2.439-7.388 12.4 12.4 0 0 0-2.439-7.389zm-13.829 13.83l-3.593 3.593A12.4 12.4 0 0 0 146.376 80a12.4 12.4 0 0 0 7.389-2.438l-3.593-3.594a7.43 7.43 0 0 1-7.59 0z" fill="#F49A84" fill-rule="nonzero"/><path d="M190.443 56.14c-2.32 0-3.57 2.24-3.57 4.346 0 1.67 1.355 4.861 3.477 4.861 1.374 0 3.009-.945 3.009-5.436 0-1.975-1.392-3.771-2.916-3.771zm7.78 0c-2.526 0-3.867 2.46-3.867 4.24 0 1.414.573 5.452 3.119 5.452 2.51 0 3.866-2.859 3.866-5.543 0-2.71-1.812-4.15-3.118-4.15zm-13.486 7.753c-1.664 0-3.352 2.364-3.352 4.68 0 1.65 1.279 4.043 3.274 4.043 2.013 0 3.212-2.544 3.212-4.997 0-1.884-1.555-3.726-3.134-3.726zm19.145 0c-1.3.027-2.63 1.151-3.788 3.256-.807 1.465-.969 2.864-.468 3.937a2.628 2.628 0 0 0 1.84 1.47c.189.043.384.06.576.06 1.561 0 3.095-1.431 3.992-3.74.461-1.197.376-2.715-.203-3.771-.343-.627-.82-1.02-1.388-1.151a2.35 2.35 0 0 0-.56-.06zm-10.414 4.362c-1.596 0-2.604 1.152-3.664 2.377-.349.405-.703.822-1.107 1.227-.485.49-.988.865-1.419 1.196-1.023.786-1.902 1.47-1.902 3.029 0 1.408 1.1 2.831 3.196 2.831 1.158 0 1.996-.246 2.807-.484.719-.212 1.397-.409 2.26-.409.942 0 1.791.15 2.62.303.808.15 1.65.318 2.54.318 2.349 0 3.54-.947 3.54-2.787 0-1.406-1.242-1.936-2.339-2.407-.725-.313-1.471-.636-1.933-1.181a17.145 17.145 0 0 1-1.045-1.394c-.921-1.346-1.779-2.62-3.554-2.62z" fill="#BCD5AB" fill-rule="nonzero"/><path d="M57.127 72.98c1.7-2.52 4.37-4.8 4.49-4.86.062-.06.245-.12.366-.12.12 0 .303.06.424.12s2.793 2.4 4.493 4.86c.121.18.121.42.06.66-.122.18-.304.36-.546.36h-2.245s-.304 5.22-.486 5.46c-.304.3-1.032.54-1.7.54-.669 0-1.335-.24-1.58-.54-.12-.24-.545-5.46-.545-5.46h-2.245c-.244 0-.424-.12-.547-.36-.121-.18-.06-.42.061-.66zm57 2.04c1.7 2.52 4.37 4.8 4.49 4.86.062.06.245.12.366.12.12 0 .303-.06.424-.12s2.793-2.4 4.493-4.86c.121-.18.121-.42.06-.66-.122-.18-.304-.36-.546-.36h-2.245s-.304-5.22-.486-5.46c-.304-.3-1.032-.54-1.7-.54-.669 0-1.335.24-1.58.54-.12.24-.545 5.46-.545 5.46h-2.245c-.244 0-.424.12-.547.36-.121.18-.06.42.061.66zm93 0c1.7 2.52 4.37 4.8 4.49 4.86.062.06.245.12.366.12.12 0 .303-.06.424-.12s2.793-2.4 4.493-4.86c.121-.18.121-.42.06-.66-.122-.18-.304-.36-.546-.36h-2.245s-.304-5.22-.486-5.46c-.304-.3-1.032-.54-1.7-.54-.669 0-1.335.24-1.58.54-.12.24-.545 5.46-.545 5.46h-2.245c-.244 0-.424.12-.547.36-.121.18-.06.42.061.66zm-47-2.04c1.7-2.52 4.37-4.8 4.49-4.86.062-.06.245-.12.366-.12.12 0 .303.06.424.12s2.793 2.4 4.493 4.86c.121.18.121.42.06.66-.122.18-.304.36-.546.36h-2.245s-.304 5.22-.486 5.46c-.304.3-1.032.54-1.7.54-.669 0-1.335-.24-1.58-.54-.12-.24-.545-5.46-.545-5.46h-2.245c-.244 0-.424-.12-.547-.36-.121-.18-.06-.42.061-.66z" fill="#D1E8FF"/></g><g transform="translate(496.5 301.95)"><ellipse fill="#D9EBE2" fill-rule="nonzero" cx="18.717" cy="18" rx="17.917" ry="18"/><path d="M32.994 18c0 7.922-6.392 14.344-14.277 14.344-7.885 0-14.278-6.422-14.278-14.344S10.832 3.656 18.717 3.656c7.885 0 14.277 6.422 14.277 14.344z" fill="#69B18A"/><path d="M29.567 18c0 6.02-4.858 10.901-10.85 10.901-5.993 0-10.851-4.88-10.851-10.901 0-6.02 4.858-10.901 10.85-10.901 5.993 0 10.851 4.88 10.851 10.901z" fill="#D9EBE2"/><path d="M16.432 14.887v-4.032c0-.49.398-.888.888-.888h2.793c.49 0 .888.398.888.888v7.474a.592.592 0 0 1-.172.418l-.554.557a.592.592 0 0 0 0 .835l.554.557c.11.11.172.26.172.417v4.032c0 .49-.397.887-.888.887H17.32a.888.888 0 0 1-.888-.887V17.67a.59.59 0 0 1 .173-.418l.554-.557a.592.592 0 0 0 0-.835l-.554-.557a.592.592 0 0 1-.173-.417z" fill="#69B18A"/></g><path d="M671.697 378.581c8.87-12.833 20.066-21.018 33.59-24.556 20.284-5.308 50.293-.284 64.704 24.556 14.411 24.84 26.572 58.417 50.344 65.732 23.771 7.315 49.087-3.396 78.346 16.067 19.506 12.976 32.184 29.697 38.036 50.165" stroke="#8EC4A7" stroke-width="2" stroke-dasharray="4,4"/><g transform="translate(743 350)" fill-rule="nonzero"><ellipse fill="#75C464" cx="13" cy="12.919" rx="12.649" ry="12.638"/><path d="M17.216 10.813h-1.054V8.706A3.16 3.16 0 0 0 13 5.546a3.16 3.16 0 0 0-3.162 3.16v2.107H8.784c-.582 0-1.054.471-1.054 1.053v5.266c0 .581.472 1.053 1.054 1.053h8.432c.582 0 1.054-.472 1.054-1.053v-5.266c0-.582-.472-1.053-1.054-1.053zm-3.162 0h-2.108V8.706a1.054 1.054 0 0 1 2.108 0v2.107z" fill="#FFF"/></g><g transform="translate(804 430)" fill-rule="nonzero"><ellipse fill="#75C464" cx="13" cy="12.919" rx="12.649" ry="12.638"/><path d="M17.216 10.813h-1.054V8.706A3.16 3.16 0 0 0 13 5.546a3.16 3.16 0 0 0-3.162 3.16v2.107H8.784c-.582 0-1.054.471-1.054 1.053v5.266c0 .581.472 1.053 1.054 1.053h8.432c.582 0 1.054-.472 1.054-1.053v-5.266c0-.582-.472-1.053-1.054-1.053zm-3.162 0h-2.108V8.706a1.054 1.054 0 0 1 2.108 0v2.107z" fill="#FFF"/></g><g transform="translate(688.5 334.95)"><ellipse fill="#FFF" fill-rule="nonzero" cx="18.717" cy="18" rx="17.917" ry="18"/><path d="M32.994 18c0 7.922-6.392 14.344-14.277 14.344-7.885 0-14.278-6.422-14.278-14.344S10.832 3.656 18.717 3.656c7.885 0 14.277 6.422 14.277 14.344z" fill="#69B18A"/><path d="M29.567 18c0 6.02-4.858 10.901-10.85 10.901-5.993 0-10.851-4.88-10.851-10.901 0-6.02 4.858-10.901 10.85-10.901 5.993 0 10.851 4.88 10.851 10.901z" fill="#FFF"/><path d="M16.432 14.887v-4.032c0-.49.398-.888.888-.888h2.793c.49 0 .888.398.888.888v7.474a.592.592 0 0 1-.172.418l-.554.557a.592.592 0 0 0 0 .835l.554.557c.11.11.172.26.172.417v4.032c0 .49-.397.887-.888.887H17.32a.888.888 0 0 1-.888-.887V17.67a.59.59 0 0 1 .173-.418l.554-.557a.592.592 0 0 0 0-.835l-.554-.557a.592.592 0 0 1-.173-.417z" fill="#69B18A"/></g><g transform="translate(861.5 434.95)"><ellipse fill="#FFF" fill-rule="nonzero" cx="18.717" cy="18" rx="17.917" ry="18"/><path d="M32.994 18c0 7.922-6.392 14.344-14.277 14.344-7.885 0-14.278-6.422-14.278-14.344S10.832 3.656 18.717 3.656c7.885 0 14.277 6.422 14.277 14.344z" fill="#69B18A"/><path d="M29.567 18c0 6.02-4.858 10.901-10.85 10.901-5.993 0-10.851-4.88-10.851-10.901 0-6.02 4.858-10.901 10.85-10.901 5.993 0 10.851 4.88 10.851 10.901z" fill="#FFF"/><path d="M16.432 14.887v-4.032c0-.49.398-.888.888-.888h2.793c.49 0 .888.398.888.888v7.474a.592.592 0 0 1-.172.418l-.554.557a.592.592 0 0 0 0 .835l.554.557c.11.11.172.26.172.417v4.032c0 .49-.397.887-.888.887H17.32a.888.888 0 0 1-.888-.887V17.67a.59.59 0 0 1 .173-.418l.554-.557a.592.592 0 0 0 0-.835l-.554-.557a.592.592 0 0 1-.173-.417z" fill="#69B18A"/></g><path d="M831 407.667a5.334 5.334 0 0 1-5.333 5.333h-45.334a5.334 5.334 0 0 1-5.333-5.333v-29.334a5.333 5.333 0 0 1 5.333-5.333h45.334a5.333 5.333 0 0 1 5.333 5.333v29.334z" fill="#F8D772"/><path d="M796.781 389.333c0 2.944-2.406 5.334-5.375 5.334-2.968 0-5.375-2.39-5.375-5.334 0-2.945 2.407-5.333 5.375-5.333 2.969 0 5.375 2.388 5.375 5.333zm4.032 12s-2.605-4-9.407-4c-6.804 0-9.406 4-9.406 4V404h18.813v-2.667zm24.187-16h-20.156V388H825v-2.667zm0 6.667h-20.156v2.667H825V392zm-9.406 6.667h-10.75v2.666h10.75v-2.666z" fill="#8EC4A7" fill-rule="nonzero"/><g transform="translate(15 11.511)"><rect stroke="#B4D8C5" stroke-width="2" x="526" y="71" width="27.016" height="25.539" rx="3"/><rect fill="#B4D8C5" fill-rule="nonzero" x="1143.922" y=".575" width="109.566" height="111.169" rx="6"/><rect fill="#ECF5F0" fill-rule="nonzero" x="833" y="256.489" width="24" height="24" rx="3"/></g></g><g mask="url(#d)"><g transform="translate(768 -132)"><path fill="#FFF" fill-rule="nonzero" d="M41.308 0h3.385v220.24h-3.385z"/><mask id="h" fill="#fff"><use xlink:href="#g"/></mask><use fill="#8EC4A7" fill-rule="nonzero" xlink:href="#g"/><ellipse fill="#49A975" fill-rule="nonzero" mask="url(#h)" cx="43.846" cy="226.96" rx="38.077" ry="16.8"/><ellipse stroke="#CCE0F5" mask="url(#h)" cx="43.846" cy="218.56" rx="110.846" ry="48.72"/></g></g><g mask="url(#d)"><g transform="matrix(-1 0 0 1 1097 392)"><path d="M55.982 16.446s4.886 7.74-9.16 11.815c-14.047 4.074 3.664-13.241 3.664-13.241l5.496 1.426z" fill="#212B36"/><path d="M52.657 16.242s-6.785 10.321-1.629 20.37c0 0 2.172 1.63 1.629 3.803-.543 2.173-10.586 13.852-14.928 13.852-4.344 0-9.5-2.716-10.586-4.074 0 0-6.243 5.975-7.329 14.667 0 0-10.043 1.357-10.043 0V48.563S1.086 27.106.814 26.291c-.271-.815 15.743-15.753 15.743-15.753l18.729-7.062S46.143-.054 46.414.761c.272.815 4.886 11.407 4.886 11.407l1.357 4.074z" fill="#947557"/><path d="M.814 26.292c.222.665 6.042 15.065 8.179 20.347 3.027 2.153 8.538 5.639 14.892 7.628 1.697-2.58 3.258-4.074 3.258-4.074S11.03 33.302 6.016 20.615C3.083 23.505.708 25.974.814 26.292" fill="#6E5641"/><path d="M35.218 24.39s2.646-6.926 7.94-4.685" stroke="#6E5641" stroke-width="1.08" stroke-linecap="round" stroke-linejoin="round"/><path d="M37.05 43.335s1.977 3.942 9.437 3.295" stroke="#6E5641" stroke-width=".81" stroke-linecap="round" stroke-linejoin="round"/><ellipse fill="#212B36" fill-rule="nonzero" cx="40.714" cy="30.148" rx="1.629" ry="1.63"/></g><path d="M1053.455 486.552s-13.689 3.433-23.15 11.106c0 0-38.448-5.452-56.363-2.827 0 0-4.429.404-7.046 4.644 0 0-5.838-2.827-9.26 2.423 0 0-3.02-.605-4.83 2.423-1.812 3.03 1.207 9.895 3.019 8.885 1.811-1.01 2.415-4.644 2.415-4.644s2.416 2.019 4.026 1.01c0 0 2.416 4.24 5.033 2.422 0 0-.403-4.442 1.006-4.442 0 0 6.844 4.24 11.072-2.625 0 0 31.604 14.135 53.142 11.106 15.702-5.25 27.176-12.923 27.176-12.923l-6.24-16.558z" fill="#947557"/><path d="M1075.597 519.264s-20.071 28.673-26.24 29.682c-6.169 1.01-37.169-17.97-37.169-17.97l-20.13-5.049-12.681-.808s1.207-9.042 4.83-8.66c3.624.382 4.027 1.997 4.027 1.997s3.02-3.635 6.643 1.413c0 0 15.902-5.25 50.526 6.866l15.902-19.99 7.985-3.231 6.307 15.75z" fill="#947557"/><path d="M1034.934 499.23c-.244.4-.598.43-1.008.252-.415-.177-.695-.056-1.007-.251-.314-.191-.408-.282-.602-.355-.24-.132-.586.036-.886-.187-.269-.196-.497-.266-.531-.7-.053-.559.318-.833.524-.703.374.224.608-.067.995.117.6.392 1.057.343 1.355.317.165-.018.302.222.484.335.172.106.32.008.488.2.326.386.406.611.188.976m10.958 28.005c.042-.468.802-.596 1.817-.35 1.008.252 1.554.214 2.353.598.787.405 1.008.59 1.453.822.528.346 1.337.502 1.97 1.164.547.56.955 1.008.694 1.339-.353.443-.98.284-1.222-.016-.49-.56-.963-.465-1.566-.914-1.026-.815-1.913-.93-2.41-.968-.278-.025-.616-.318-1.006-.461-.365-.139-.567-.034-.98-.233-.828-.391-1.148-.553-1.103-.98m-51.436-7.009c.116.454-.048.714-.364.916-.32.213-.309.497-.547.643-.242.158-.336.208-.437.342-.153.171-.039.468-.267.71-.215.221-.306.458-.743.44-.563-.007-.784-.372-.654-.57.267-.344-.009-.63.263-1.008.519-.562.682-.994.807-1.31.072-.167.367-.198.572-.307.196-.096.204-.281.48-.317.54-.05.78.053.89.461m-6.551-1.308c.305.357.26.674.034 1.066-.225.4-.113.695-.315 1.014-.198.33-.286.44-.355.654-.13.27.045.647-.182 1.022-.196.33-.293.617-.726.603-.564-.012-.791-.376-.676-.586.235-.386-.074-.633.105-1.057.373-.684.352-1.193.348-1.534-.005-.188.256-.352.4-.558.14-.193.065-.368.31-.55.482-.347.78-.391 1.057-.074m-22.135-17.661c.16.44-.254.819-.87 1.376-.606.586-.656 1.037-1.051 1.578a5.73 5.73 0 0 0-.4.652c-.092.171-.173.31-.223.508-.097.24-.127.528-.133.843-.032.31-.028.646-.139 1.01-.173.632-.212 1.166-.648 1.205-.561.062-.84-.55-.752-.94.21-.728-.106-1.114.129-1.896.487-1.278.748-2.122.935-2.663.095-.302.511-.583.838-.889.306-.289.347-.533.805-.77.909-.438 1.363-.401 1.509-.014m-8.261 1.104c.32.348.257.683.121 1.169-.133.503.094.76.057 1.18-.018.441-.028.609.04.87.043.358.435.644.503 1.169.078.455.199.809-.16 1.05-.465.32-.904.085-.955-.196-.073-.54-.502-.602-.62-1.17-.13-.958-.387-1.538-.542-1.95-.077-.226.101-.569.187-.893.094-.303-.021-.493.218-.82.487-.618.867-.708 1.15-.409" fill="#6E5641"/><path d="M1136.573 537.35s2.63 11.498 1.416 17.953.607 29.048-5.259 35.1c-5.865 6.051-130.245 11.9-134.087 8.875-3.843-3.026-5.056-16.34 1.416-19.163 6.471-2.824 52.38-19.97 97.279-20.576.202-1.21.202-11.296.202-11.296l39.033-10.893z" fill="#F49A84"/><path d="M1110.686 558.16c0 .47-.913.68-2.274.74-1.362.064-2 .312-3.14.308-1.143 0-1.512-.029-2.165.008-.83.015-1.795.348-2.95.322-.996-.018-1.768.06-1.864-.364-.13-.545.692-.978 1.244-.95 1.046.034 1.498-.354 2.586-.371 1.854.054 3.023-.224 3.722-.397.386-.096.997.04 1.588.044.558.005.797-.156 1.452-.076 1.295.162 1.8.312 1.8.737" fill="#F0785B"/><g transform="matrix(-1 0 0 1 1030 476)" fill-rule="nonzero"><path fill="#FFF" d="M37.864 72.09H24.168l-8.056 53.46h10.473z"/><rect fill="#69947D" y="55.08" width="142.51" height="17.82" rx=".54"/><path d="M19.352 48.6h58.992L99.408.646a1.08 1.08 0 0 1 .989-.646h5.902a1.08 1.08 0 0 1 .99 1.514L83.783 55.08H16.112v-3.24a3.24 3.24 0 0 1 3.24-3.24z" fill="#FFF"/></g><path d="M1082.496 446.755s-10.739 7.942-10.94 10.04c-.202 2.098 5.47 7.155 5.47 7.155l-3.457 5.462s-16.912 5.866-24.965 13.149c0 0 1.812 18.004 10.268 29.13l5.235-2.226s4.831 9.103 13.086 13.958c8.254 4.855 18.126 19.218 18.324 28.119 0 0 29.592-.81 43.08-13.351 1.007-4.046-1.207-5.26-2.415-7.687-1.208-2.428-9.124-50.775-53.686-83.749" fill="#06C"/><path d="M1084.368 495.201c.322.343-.83 1.708-2.832 3.383-2.006 1.669-2.869 2.596-4.686 3.835-1.827 1.223-2.452 1.556-3.514 2.236-1.363.817-2.884 2.044-4.945 2.935-1.764.783-3.198 1.298-3.364.924-.232-.525 1.098-1.42 2.015-1.79 1.763-.716 2.405-1.462 4.151-2.427 3.024-1.613 4.69-3.137 5.662-4.012.534-.495 1.529-1.04 2.411-1.707.828-.631 1.085-1.033 2.079-1.738 1.962-1.408 2.73-1.954 3.023-1.639m6.31-27.03c-.066.464-1.246.515-2.993.446-1.75-.063-2.582.166-4.042.137-1.463-.015-1.936-.03-2.772.036-1.067.042-2.297.45-3.767.577-1.28.09-2.26.337-2.394-.095-.172-.53.85-1.102 1.56-1.153 1.343-.103 1.922-.556 3.336-.645 2.407-.074 3.937-.305 4.86-.465.508-.085 1.296.08 2.068.125.725.052 1.05-.092 1.896.057 1.67.309 2.305.56 2.248.98" fill="#004D99"/><g><path d="M1059.844 398.21s-11.454 20.94-25.32 9.555c0 0-1.005-.61 3.215-2.846 4.22-2.237 6.632-29.275 21.904-19.11 0 0 28.937-7.929 36.975 1.016s-1.808 25.819 11.053 31.308c12.86 5.489 26.525 11.994 26.726 23.786.201 11.79-10.45 18.5-16.076 21.752-5.627 3.253-13.866 6.912-18.688 4.473-4.823-2.44-3.417-8.132-11.656-12.401-8.239-4.27-17.281-17.49-7.033-29.99 0 0 4.568-2.179 4.017-7.62-.551-5.442-6.428-6.302-7.031-2.846 0 0-11.655-3.253-18.086-17.077z" fill="#212B36"/><path d="M1049.38 419.79l11.513-2.46a1 1 0 0 1 1.208 1.017c-.175 4.474-1.962 6.874-5.361 7.2-3.304.317-5.968-1.096-7.991-4.237a1 1 0 0 1 .632-1.52zm12.402-1.79l15.918-3" stroke="#F49A84"/></g><path d="M1172.651 520.823c1.615-3.042 1.817-3.447.404-3.65-1.413-.203-3.432-.811-6.057 2.636-2.624 3.447-67.375 69.178-72.65 80.112-5.277 10.933 17.053 26.382 45.652 1.539 14.599-24.843 17.308-54.277 32.651-80.637z" fill="#48735C"/></g><g mask="url(#d)"><g transform="translate(593 447.84)"><use fill="#000" filter="url(#i)" xlink:href="#j"/><use fill="#5C6F82" xlink:href="#j"/></g><g transform="translate(593 447.84)"><use fill="#000" filter="url(#k)" xlink:href="#l"/><use fill="#454F5B" xlink:href="#l"/></g><g transform="translate(593 447.84)"><use fill="#000" filter="url(#m)" xlink:href="#n"/><use fill="#454F5B" xlink:href="#n"/></g></g><g mask="url(#d)"><use fill="#004D99" xlink:href="#o"/><use fill="#000" filter="url(#p)" xlink:href="#o"/></g><g mask="url(#d)"><path d="M686.426 431.084c-13.24-3.861-17.975-14.466-17.975-14.466v-11.401h-22.152v11.401s-4.404 10.666-17.644 14.528c-12.961 3.78 26.985 23.227 28.69 24.06v.03l.03-.015.031.014v-.03c1.704-.832 41.98-20.34 29.02-24.12" fill="#FCD7BB"/><path d="M648.99 416.25c4.26 2.75 9.135 3.033 11.327 3 1.744.026 5.188-.153 8.668-1.61a13.258 13.258 0 0 1-.534-1.022v-11.4h-22.152v8.728c.825.894 1.717 1.676 2.69 2.305" fill="#D9B29E"/><path d="M593.978 492.215c2.954-13.497 10.331-44.4 13.891-48.897 4.473-5.65 9.733-7.853 18.257-11.3 8.124-2.686 12.05-5.928 12.05-5.928 6.709 8.01 15.265 16.296 19.7 16.296 4.435 0 12.991-8.287 19.701-16.296 0 0 3.925 3.242 12.05 5.928 8.523 3.447 13.783 5.65 18.256 11.3 3.81 4.813 11.993 39.872 14.446 51.469 1.687 5.995 5.55 20.561 3.95 22.813-1.961 2.76-20.104 14.525-68.495 13.814-48.392.71-66.535-11.054-68.497-13.814-2.022-2.847 4.69-25.384 4.69-25.384z" fill="#F49A84"/><path d="M620.685 459.13c-.868-.157-1.625 1.942-2.106 5.156-.483 3.213-1.07 4.704-1.238 7.438-.149 2.737-.108 3.62-.204 5.19-.048 1.982-.649 4.365-.376 7.164.23 2.411.464 4.305 1.258 4.285 1.071-.031 1.502-2.007 1.344-3.238-.318-2.37.369-3.497.343-5.991-.147-4.288.59-7.02 1.017-8.609.243-.882.102-2.31.229-3.685.121-1.295.481-1.814.514-3.343.076-3.03.01-4.227-.781-4.367m74.839-.015c-.867.157-.898 2.346-.51 5.531.38 3.194.137 4.763.539 7.426.391 2.665.57 3.518.708 5.058.26 1.942-.066 4.319.352 7.018.372 2.337.478 4.189 1.302 4.21 1.053.03 1.565-2.011 1.34-3.272-.402-2.402.18-3.597-.144-6.13-.69-4.295-.589-7.116-.507-8.798.049-.93-.423-2.309-.64-3.688-.213-1.297 0-1.906-.389-3.406-.784-2.963-1.265-4.089-2.051-3.95" fill="#F0785B"/><path d="M640.526 377.973s-4.727-3.885-8.545 0c-3.818 3.884 1.818 15.91 8.545 12.95 6.727-2.96 0-12.95 0-12.95m33.671 0s4.727-3.885 8.545 0c3.818 3.884-1.818 15.91-8.545 12.95-6.727-2.96 0-12.95 0-12.95" fill="#D9B29E"/><g transform="translate(611.765 474.407)" fill-rule="nonzero"><rect fill="#F9FAFB" width="91.581" height="56.5" rx="2"/><path d="M51.895 31.604c-.334.688-.493.995-.923 1.602-.599.848-1.444 1.905-2.491 1.914-.93.008-1.17-.563-2.432-.556-1.263.006-1.526.566-2.457.558-1.047-.009-1.847-.963-2.447-1.812-1.676-2.372-1.851-5.156-.817-6.635.734-1.053 1.894-1.668 2.983-1.668 1.11 0 1.808.566 2.725.566.89 0 1.433-.566 2.716-.566.97 0 1.997.49 2.73 1.339-2.4 1.222-2.01 4.406.413 5.258zm-3.981-8.082c.466-.556.82-1.34.69-2.144-.76.049-1.65.5-2.17 1.086-.473.533-.863 1.323-.711 2.091.83.025 1.69-.437 2.19-1.033z" fill="#A3D1FF"/></g><g transform="translate(636.313 353.746)"><mask id="r" fill="#fff"><use xlink:href="#q"/></mask><use fill="#FCD7BB" xlink:href="#q"/><path d="M25.07 50.917c-.237-.196-1.747-1.363-4.087-1.27-2.34-.093-3.85 1.074-4.088 1.27-.64-.166-3.921.356-5.966-2.39-.624-.734-.383-1.477 0-2.126.383-.65 2.397-3.595 4.961-3.513 1.113.034 2.03.215 2.895.39.593.139 1.805.366 2.198.34.393.026 1.644-.209 2.197-.34.866-.175 1.783-.356 2.896-.39 2.564-.082 4.578 2.864 4.96 3.513.383.65.625 1.392 0 2.126-2.044 2.746-5.326 2.224-5.966 2.39zm7.064-7.67c-2.181-2.32-6.425-3.154-8.772-2.412-.718.227-1.498.314-2.234.327-.049 0-.096.002-.145 0-.049.002-.096 0-.145 0-.737-.013-1.516-.1-2.236-.327-2.346-.742-6.59.093-8.77 2.412-2.183 2.32-2.961 1.855-2.961 1.855S2.26 42.877.44 38.555c0 0-.269 10.743 6.66 16.085 2.728 2.101 7.525 3.635 9.774 4.396.182.309.43.55.777.662.708.228 1.86.356 3.33.23 1.47.126 2.623-.002 3.332-.23.347-.113.595-.353.777-.662 2.249-.761 6.118-2.036 8.846-4.137 6.928-5.342 7.985-16.344 7.421-16.344-1.82 4.322-6.263 6.547-6.263 6.547s-.778.464-2.96-1.855z" fill="#DFC5B0" mask="url(#r)"/></g><path stroke="#D9B29E" stroke-width=".5" stroke-linecap="round" stroke-linejoin="round" d="M656.55 378.444v14.657h3.025m-6.503 4.332s3.478 3.294 8.09 0"/><path d="M647.779 380.916c0 .62-.497 1.124-1.11 1.124a1.117 1.117 0 0 1-1.108-1.124c0-.62.496-1.123 1.109-1.123.612 0 1.109.503 1.109 1.123m20.567 0c0 .62-.497 1.124-1.11 1.124a1.116 1.116 0 0 1-1.108-1.124c0-.62.496-1.123 1.109-1.123.612 0 1.109.503 1.109 1.123" fill="#212B36"/><path d="M642.536 373l5.444-1.124M671.572 373l-5.445-.562" stroke="#D9B29E" stroke-width="1.92" stroke-linecap="round" stroke-linejoin="round"/><path d="M638.945 363.31s1.592 11.428-3.307 17.082c0 .361-1.224.118-1.837-1.324-.612-1.443-5.998-20.81 2.695-22.493 0 0 4.408-6.857 12.491-8.18 8.083-1.323 15.431 1.082 18.003 1.323 2.572.24 12.001 5.172 12.247 6.857.245 1.684 2.082 4.084 3.551 5.29 1.47 1.206 1.102 13.41-4.653 18.676-.613.212-.735-1.473-.735-1.473s1.102-9.743-2.45-14.073c0 0-6.246 4.45-12.124 1.684 0 0 3.797-3.007 3.306-6.255 0 0-13.838 9.383-27.187 2.887" fill="#734B2E"/></g><g mask="url(#d)"><g transform="rotate(-10 3480.388 -3197.323)"><use fill="#06C" xlink:href="#s"/><use fill="#000" filter="url(#t)" xlink:href="#s"/></g><g transform="rotate(3 -10154.77 12060.054)"><use fill="#06C" xlink:href="#u"/><use fill="#000" filter="url(#v)" xlink:href="#u"/></g></g><path fill="#FFF" fill-rule="nonzero" mask="url(#d)" transform="matrix(-1 0 0 1 1093.752 0)" d="M536 548h13.695l8.057 53.46h-10.473z"/><path fill="#FFF" fill-rule="nonzero" mask="url(#d)" transform="matrix(-1 0 0 1 1814.59 0)" d="M896.419 549h13.695l8.057 53.46h-10.473z"/><path fill="#FFF" fill-rule="nonzero" mask="url(#d)" d="M866 548h13.695l8.057 53.46h-10.473z"/><rect fill="#48735C" fill-rule="nonzero" mask="url(#d)" x="503.33" y="531.08" width="390.51" height="17.82" rx=".54"/><rect fill="#385948" fill-rule="nonzero" mask="url(#d)" x="884.33" y="531.08" width="9.51" height="17.82" rx=".54"/><g mask="url(#d)"><path d="M679 375.942c3.333-.2 5 2.128 5 6.981s-1.667 7.879-5 9.077v-16.058zm-44 1c-2.667-.187-4 1.995-4 6.546s1.333 7.389 4 8.512v-15.058z" fill="#454F5B"/><path d="M668 404.804C675.273 403.6 679.273 398 680 388" stroke="#979797" stroke-width="2" stroke-linecap="round" stroke-linejoin="round"/><path d="M665 405.836l4-1.032" stroke="#454F5B" stroke-width="4" stroke-linecap="round" stroke-linejoin="round"/></g></g></svg>