<svg height="390" viewBox="0 0 250 390" width="250" xmlns="http://www.w3.org/2000/svg" xmlns:xlink="http://www.w3.org/1999/xlink"><defs><rect id="a" height="240" rx="18" width="220"/><filter id="b" height="103.3%" width="101.8%" x="-.9%" y="-.8%"><feOffset dy="4" in="SourceAlpha" result="shadowOffsetOuter1"/><feColorMatrix in="shadowOffsetOuter1" values="0 0 0 0 0.263113267 0 0 0 0 0.429971766 0 0 0 0 0.660395408 0 0 0 1 0"/></filter></defs><g fill="none" fill-rule="evenodd"><g fill-rule="nonzero"><path d="m44.664 292.157 28.003 16.167a5.6 5.6 0 0 0 7.65-2.05l8.4-14.549a5.6 5.6 0 0 0 -2.05-7.65l-28.003-16.167a3.733 3.733 0 0 0 -2.822-.375l-14.075 3.729a3.733 3.733 0 0 0 -2.647 4.585l3.808 14.053a3.733 3.733 0 0 0 1.736 2.257zm7.533-16.128c1.798 1.039 2.42 3.328 1.39 5.113-1.032 1.786-3.325 2.392-5.123 1.354s-2.42-3.328-1.39-5.113c1.032-1.786 3.325-2.392 5.123-1.354z" fill="#7aa0d6"/><g transform="matrix(.8660254 .5 -.5 .8660254 249.999844 44.999881)"><use fill="#000" filter="url(#b)" xlink:href="#a"/><use fill="#5882bc" xlink:href="#a"/><g fill="#7aa0d6"><path d="m23.66 136.34h12a4 4 0 0 1 4 4v12a4 4 0 0 1 -4 4h-12a4 4 0 0 1 -4-4v-12a4 4 0 0 1 4-4zm30-24h12a4 4 0 0 1 4 4v12a4 4 0 0 1 -4 4h-12a4 4 0 0 1 -4-4v-12a4 4 0 0 1 4-4zm12-24h12a4 4 0 0 1 4 4v12a4 4 0 0 1 -4 4h-12a4 4 0 0 1 -4-4v-12a4 4 0 0 1 4-4zm-6-24h12a4 4 0 0 1 4 4v12a4 4 0 0 1 -4 4h-12a4 4 0 0 1 -4-4v-12a4 4 0 0 1 4-4zm-36-24h12a4 4 0 0 1 4 4v12a4 4 0 0 1 -4 4h-12a4 4 0 0 1 -4-4v-12a4 4 0 0 1 4-4zm24 0h12a4 4 0 0 1 4 4v12a4 4 0 0 1 -4 4h-12a4 4 0 0 1 -4-4v-12a4 4 0 0 1 4-4zm42 48h12a4 4 0 0 1 4 4v12a4 4 0 0 1 -4 4h-12a4 4 0 0 1 -4-4v-12a4 4 0 0 1 4-4zm24 0h12a4 4 0 0 1 4 4v12a4 4 0 0 1 -4 4h-12a4 4 0 0 1 -4-4v-12a4 4 0 0 1 4-4zm-36 24h12a4 4 0 0 1 4 4v12a4 4 0 0 1 -4 4h-12a4 4 0 0 1 -4-4v-12a4 4 0 0 1 4-4zm24 0h12a4 4 0 0 1 4 4v12a4 4 0 0 1 -4 4h-12a4 4 0 0 1 -4-4v-12a4 4 0 0 1 4-4zm-54 24h12a4 4 0 0 1 4 4v12a4 4 0 0 1 -4 4h-12a4 4 0 0 1 -4-4v-12a4 4 0 0 1 4-4zm24 0h12a4 4 0 0 1 4 4v12a4 4 0 0 1 -4 4h-12a4 4 0 0 1 -4-4v-12a4 4 0 0 1 4-4zm24 0h18a4 4 0 0 1 4 4v12a4 4 0 0 1 -4 4h-18a4 4 0 0 1 -4-4v-12a4 4 0 0 1 4-4zm-72-24h18a4 4 0 0 1 4 4v12a4 4 0 0 1 -4 4h-18a4 4 0 0 1 -4-4v-12a4 4 0 0 1 4-4zm0-24h30a4 4 0 0 1 4 4v12a4 4 0 0 1 -4 4h-30a4 4 0 0 1 -4-4v-12a4 4 0 0 1 4-4zm0-72h28a4 4 0 0 1 4 4v12a4 4 0 0 1 -4 4h-28a4 4 0 0 1 -4-4v-12a4 4 0 0 1 4-4zm0 48h24a4 4 0 0 1 4 4v12a4 4 0 0 1 -4 4h-24a4 4 0 0 1 -4-4v-12a4 4 0 0 1 4-4z"/><rect height="68" rx="4" width="80" x="94" y="167"/></g></g><g><path d="m41.992 40.443 97.865-5.129a6 6 0 0 1 6.306 5.678l2.826 53.926a6 6 0 0 1 -5.677 6.306l-12.983.68a2 2 0 0 0 -1.892 2.102l.25 4.757a2 2 0 0 1 -2.798 1.938l-17.097-7.457a2 2 0 0 0 -.904-.164l-62.442 3.272a6 6 0 0 1 -6.306-5.677l-2.826-53.926a6 6 0 0 1 5.678-6.306z" fill="#7aa0d6"/><path d="m51.607 51.955 79.89-4.186a3 3 0 0 1 .315 5.991l-79.89 4.187a3 3 0 0 1 -.315-5.992zm.629 11.984 64.91-3.402a3 3 0 0 1 .314 5.992l-64.91 3.402a3 3 0 0 1 -.314-5.992zm1.256 23.967 47.934-2.512a3 3 0 0 1 .314 5.992l-47.934 2.512a3 3 0 0 1 -.314-5.992zm-.628-11.983 73.898-3.873a3 3 0 0 1 .314 5.991l-73.898 3.873a3 3 0 0 1 -.314-5.991z" fill="#5882bc"/></g></g><g transform="matrix(.96592583 -.25881905 .25881905 .96592583 59.505074 169.857911)"><circle cx="20" cy="20" fill="#5882bc" fill-rule="nonzero" r="20"/><path d="m18.455 27.962v-11.849h3.126v11.849zm1.569-13.503c-1.128 0-1.848-.656-1.848-1.58 0-.934.72-1.579 1.848-1.579 1.117 0 1.847.645 1.847 1.58 0 .923-.73 1.579-1.847 1.579z" fill="#2b5590"/></g><g transform="matrix(.8660254 .5 -.5 .8660254 149.673392 327.673297)"><path d="m15.33 20.297c-.317-1.27-.485-2.599-.485-3.968 0-9.018 7.31-16.329 16.33-16.329 9.018 0 16.329 7.31 16.329 16.33 0 9.018-7.311 16.329-16.33 16.329-1.368 0-2.697-.168-3.968-.486l-3.454 3.455h-2.97l-2.968 2.969v2.969h-2.97l-2.968 2.969v2.969h-8.907l-2.969-2.97v-8.906l15.33-15.33z" fill="#7aa0d6"/><circle cx="31.174" cy="16.329" fill="#5882bc" r="11.876"/><path d="m27.16 9.645a.352.352 0 0 1 -.062.493.352.352 0 1 1 .063-.493zm2.088-.1-.341.122-.534-1.502-.2.442-.273-.136.359-.765.297-.106zm.754-.166-.354.079-.445-2.016.885-.196c.423-.093.723.145.798.486.076.342-.099.684-.519.777l-.532.118zm.248-1.17c.2-.044.317-.203.274-.397-.043-.193-.216-.288-.416-.244l-.483.107.141.64zm2.792 1.176-.41-.04-.113-.408-.943-.09-.189.38-.41-.039 1.004-1.978.45.043.61 2.132zm-.595-.775-.276-1.015-.463.944.74.07zm1.608 1.207c-.369-.095-.602-.293-.73-.528l.265-.22a.89.89 0 0 0 .56.44c.288.075.439-.037.473-.168.108-.42-1.125-.461-.934-1.198.086-.33.442-.51.88-.396.311.08.537.245.677.473l-.269.209a.84.84 0 0 0 -.52-.378c-.206-.054-.363.011-.402.161-.096.372 1.126.442.933 1.188-.086.333-.394.557-.933.417zm1.584.97c-.316-.213-.47-.478-.512-.741l.322-.119a.89.89 0 0 0 .383.601c.246.166.425.112.501-.001.242-.36-.907-.81-.481-1.44.19-.283.586-.333.961-.08.267.18.425.41.48.67l-.322.108a.84.84 0 0 0 -.364-.53c-.177-.119-.347-.11-.433.018-.215.319.914.792.484 1.431-.193.285-.557.394-1.019.083zm1.903 2.327-.208-.326 1.068-1.158-1.5.482-.207-.326 1.423-1.608.218.342-1.125 1.194 1.57-.495.156.243-1.113 1.215 1.557-.518.218.342zm.588 1.45c-.19-.59.106-1.143.692-1.333s1.15.087 1.34.676c.191.589-.105 1.143-.69 1.333-.587.19-1.151-.087-1.342-.676zm.307-.1c.127.395.516.553.92.422.406-.131.627-.485.5-.88-.13-.398-.514-.553-.92-.422-.404.13-.629.483-.5.88zm-.103 2.835.007-.418.778-.445.006-.36-.77-.012.006-.362 2.064.035-.015.907c-.007.408-.278.67-.659.663-.368-.006-.562-.25-.598-.5l-.82.492zm1.102-.722c-.004.205.124.355.322.359.198.003.33-.143.334-.347l.008-.496-.656-.01zm-1.379 1.781.188-.744 2.002.504-.188.744c-.157.625-.678.943-1.266.795s-.893-.675-.736-1.299zm.31.078c-.11.435.138.766.517.861.387.098.753-.065.866-.513l.099-.393-1.384-.348-.099.393zm-1.03 2.876a.352.352 0 0 1 -.106-.485.352.352 0 1 1 .106.485zm-2.99 1.598.297-.207.879 1.255-.359-1.62.127-.088 1.396.893-.879-1.255.297-.208 1.184 1.692-.419.293-1.238-.792.318 1.436-.419.293-1.183-1.692zm-1.696.438.31-.099.049.154a.631.631 0 0 1 .4-.335c.233-.074.545 0 .645.315.104.328-.115.546-.348.62-.192.061-.377.052-.519-.037l.068.213c.052.165.22.222.417.16.16-.05.28-.154.365-.314l.195.175a.889.889 0 0 1 -.526.42c-.315.1-.635.055-.756-.328zm.706-.03c-.136.044-.253.136-.293.256l.068.215c.102.075.25.083.386.04.174-.055.272-.196.223-.353-.049-.153-.21-.212-.384-.157zm-2.44.198.324-.025.016.203a.605.605 0 0 1 .459-.278c.383-.03.686.238.725.729.037.481-.217.805-.602.836a.6.6 0 0 1 -.498-.207l.061.775-.324.025zm.729.194a.488.488 0 0 0 -.37.228l.046.593a.491.491 0 0 0 .402.17c.256-.02.403-.24.38-.53-.022-.287-.202-.48-.458-.46zm-1.85-.437c.448.036.757.374.72.846-.035.432-.377.756-.818.72-.448-.035-.708-.4-.67-.869l.006-.077 1.15.09c-.006-.226-.161-.425-.442-.447a.633.633 0 0 0 -.436.13l-.131-.225a.871.871 0 0 1 .622-.168zm-.466.873a.4.4 0 0 0 .389.428c.277.022.42-.18.45-.362zm-2.001.018a.203.203 0 0 1 .088.27.2.2 0 1 1 -.088-.27zm.613-1.57.29.147-.677 1.333-.29-.147zm-1.417-.887.265.188-.543.761c-.135.19-.084.32.065.427.136.097.31.099.429.059l.606-.85.264.19-.868 1.216-.265-.188.12-.167a.707.707 0 0 1 -.57-.109c-.261-.187-.292-.421-.114-.67zm-1.381-1.692c.398.462.378 1.103-.103 1.517-.48.414-1.118.338-1.516-.124a.933.933 0 0 1 -.189-.932l.322.132a.613.613 0 0 0 .111.59c.267.31.702.336 1.03.053s.367-.717.1-1.026a.606.606 0 0 0 -.566-.198l-.082-.338c.29-.042.62.01.893.326zm-.854-2.074.106.307-.152.053c.156.063.28.204.345.391.08.231.015.545-.298.653-.324.113-.549-.1-.629-.332-.066-.19-.061-.375.023-.519l-.21.073c-.164.057-.217.226-.149.422.055.158.16.275.323.356l-.17.2a.889.889 0 0 1 -.433-.515c-.109-.313-.072-.633.308-.765zm.047.704c-.047-.134-.142-.249-.263-.286l-.213.074c-.072.104-.077.253-.03.387.06.173.204.267.359.213.152-.052.207-.215.147-.388zm-.222-2.388.028.324-.93.082c-.232.02-.299.145-.283.327.015.166.126.3.234.364l1.04-.092.028.324-1.49.132-.028-.324.204-.018a.707.707 0 0 1 -.287-.503c-.028-.32.13-.496.435-.523zm.2-1.612-.043.323-.16-.022a.631.631 0 0 1 .133.505c-.033.242-.232.494-.56.45-.34-.046-.445-.338-.413-.58.027-.2.115-.363.255-.453l-.221-.03c-.172-.023-.295.104-.323.31a.612.612 0 0 0 .129.463l-.242.102a.889.889 0 0 1 -.156-.655c.044-.328.221-.598.62-.544l.982.131zm-.274.65c.019-.14-.015-.286-.106-.373l-.224-.03c-.111.06-.182.191-.2.332-.025.181.061.33.224.352.16.022.282-.1.306-.28zm.85-2.242-.125.3-.188-.078a.605.605 0 0 1 .039.535c-.148.355-.524.503-.979.315-.446-.186-.619-.56-.47-.917a.6.6 0 0 1 .41-.349l-.718-.298.124-.3zm-.505.561a.488.488 0 0 0 -.034-.433l-.549-.228a.491.491 0 0 0 -.334.28c-.099.237.03.468.299.58.265.11.52.038.618-.199zm1.464-1.92-.19.264-.13-.093a.631.631 0 0 1 -.122.507c-.142.199-.436.327-.705.134-.28-.2-.234-.508-.091-.706.117-.164.27-.266.437-.28l-.18-.13c-.142-.101-.31-.047-.431.121a.612.612 0 0 0 -.105.47l-.261-.024a.889.889 0 0 1 .17-.651c.193-.269.476-.424.803-.19zm-.549.445c.084-.115.122-.26.082-.38l-.183-.131c-.126 0-.25.083-.333.199-.107.148-.101.32.032.416.131.094.296.044.402-.104z" fill="#7aa0d6"/><path d="m23.752 35.628h-2.97l-2.968 2.969v2.969h-2.97l-2.968 2.969v2.969h-8.907l16.33-16.33zm-23.752 5.938 17.814-17.814 1.484 1.484-19.298 19.299z" fill="#5882bc"/></g><path d="m194.781 4.865-.966-.259.52-1.94a3 3 0 0 1 3.665-2.116l11.606 3.11a2.993 2.993 0 0 1 2.116 3.663l-.52 1.94-.966-.258.518-1.932a1.992 1.992 0 0 0 -1.409-2.448l-11.602-3.109a1.998 1.998 0 0 0 -2.444 1.416l-.518 1.932zm12.28 19.855-12.799-3.43.518-1.932 12.799 3.43zm-.423.922a3.005 3.005 0 0 1 -3.244 1.2l-9.908-2.654.518-1.932zm-16.964-5.581.518-1.932 3.864 1.035-.518 1.932zm-.096 1.01 3.701.991-.518 1.932-.973-.26a2.995 2.995 0 0 1 -2.21-2.664zm18.26.75-12.8-3.428.518-1.932 12.799 3.429-.518 1.932zm-17.387-4.658.517-1.932 3.864 1.036-.518 1.931zm18.163 1.761-12.799-3.43.518-1.931 12.798 3.43zm-17.387-4.659.518-1.932 3.863 1.036-.517 1.932zm18.163 1.761-12.798-3.429.517-1.932 12.799 3.43zm-17.386-4.658.517-1.932 3.864 1.035-.518 1.932zm18.163 1.76-12.799-3.428.777-2.898 12.798 3.43-.776 2.898zm-17.387-4.658.777-2.898 3.863 1.035-.776 2.898zm-181.41 373.363 1.421 6.158-4.732 1.093-2.475-10.718-2.916-1.836-1.925-8.336 3.55-.82.825 3.573 2.366-.546-.825-3.573 4.733-1.092.825 3.572 2.366-.546-.825-3.573 3.55-.82 1.924 8.337-1.816 2.928 2.474 10.718-4.732 1.093-1.422-6.158a3.667 3.667 0 0 0 1.588-3.916c-.455-1.973-2.414-3.205-4.374-2.753-1.96.453-3.18 2.42-2.725 4.392a3.667 3.667 0 0 0 3.145 2.823z" fill="#5882bc"/></g></svg>