<svg xmlns="http://www.w3.org/2000/svg" width="32" height="32" xmlns:xlink="http://www.w3.org/1999/xlink"><defs><path id="a" d="M15 30C6.716 30 0 23.284 0 15 0 6.716 6.716 0 15 0c8.284 0 15 6.716 15 15 0 8.284-6.716 15-15 15zm0-4.71c4.176 0 7.562-4.718 7.562-10.538S19.176 4.215 15 4.215 7.438 8.933 7.438 14.752c0 5.82 3.386 10.537 7.562 10.537z"/><linearGradient id="c" x1="50%" x2="50%" y1="0%" y2="100%"><stop stop-color="#FF2122" offset="0%"/><stop stop-color="#A9120A" offset="100%"/></linearGradient><linearGradient id="d" x1="50%" x2="50%" y1="0%" y2="97.421%"><stop stop-color="#A21000" offset="0%"/><stop stop-color="#FF4946" offset="100%"/></linearGradient><path id="e" d="M15 30C6.716 30 0 23.284 0 15 0 6.716 6.716 0 15 0c8.284 0 15 6.716 15 15 0 8.284-6.716 15-15 15zm0-4.71c4.176 0 7.562-4.718 7.562-10.538S19.176 4.215 15 4.215 7.438 8.933 7.438 14.752c0 5.82 3.386 10.537 7.562 10.537z"/></defs><g fill="none" fill-rule="evenodd" transform="translate(1 1)"><mask id="b" fill="#fff"><use xlink:href="#a"/></mask><use fill="#E41C19" fill-opacity="0" xlink:href="#a"/><g transform="translate(.248)" mask="url(#b)"><circle cx="15" cy="15" r="15" fill="url(#c)"/><circle cx="18.797" cy="14.876" r="12.397" fill="url(#d)"/></g><use fill="#E41C19" fill-opacity="0" xlink:href="#e"/><path stroke="#000" stroke-opacity=".302" stroke-width=".5" d="M15 29.75C6.854 29.75.25 23.146.25 15S6.854.25 15 .25 29.75 6.854 29.75 15 23.146 29.75 15 29.75zm0-4.21c4.336 0 7.812-4.845 7.812-10.788 0-5.943-3.476-10.787-7.812-10.787S7.188 8.81 7.188 14.752c0 5.943 3.476 10.787 7.812 10.787z"/></g></svg>