<svg xmlns="http://www.w3.org/2000/svg" width="32" height="32" xmlns:xlink="http://www.w3.org/1999/xlink"><defs><circle id="a" cx="16.484" cy="16.516" r="6.351"/><radialGradient id="b" cy="22.923%" fx="50%" fy="22.923%"><stop stop-color="#00C7E8" offset="0%"/><stop stop-color="#0067FF" offset="100%"/></radialGradient><circle id="c" cx="16.484" cy="16.516" r="14.516"/></defs><g fill="none" fill-rule="evenodd"><g transform="translate(-.5 -.5)"><use fill="#4990E2" xlink:href="#a"/><circle cx="16.484" cy="16.516" r="5.601" stroke="#000" stroke-opacity=".5" stroke-width="1.5"/><circle cx="16.484" cy="16.516" r="5.851" stroke="#FFF"/><circle cx="16.484" cy="16.516" r="6.601" stroke="#000" stroke-opacity=".4" stroke-width=".5"/></g><g transform="translate(-.5 -.5)"><use fill="url(#b)" xlink:href="#c"/><circle cx="16.484" cy="16.516" r="14.266" stroke="#000" stroke-opacity=".5" stroke-width=".5"/></g><path fill="#E6712E" d="M5.83 7.078C5.29 6.53 4.432 5.574 4.385 4.35c0 0-1.795 1.38-1.527 5.142 0 .085-.002.166-.005.243-.467.616-.71 1.13-.74 1.26-.432.875-.87 2.197-1.226 4.203 0 0 .25-.788.748-1.68-.367 1.123-.656 2.87-.486 5.494 0 0 .07-1.028.39-2.32-.08 1.868.3 4.247 1.83 6.868 3.1 5.308 8.3 7.653 13.69 7.197.94-.062 1.89-.203 2.84-.432 12.57-3.04 11.2-18.218 11.2-18.218l-.35 2.25s-.5-4.165-1.12-5.722c-.94-2.386-1.36-2.366-1.36-2.363.63 1.603.51 2.464.51 2.464s-1.12-3.046-4.07-4.014c-3.5-1.147-5.28-.733-5.27-.717.01.017 3.62.63 4.26 1.508 0 0-1.53 0-3.05.44-.07.018 5.6.708 6.76 6.376 0 0-.62-1.3-1.39-1.52.5 1.54.37 4.46-.11 5.91-.06.18-.12-.81-1.07-1.24.3 2.18-.02 5.63-1.53 6.58-.12.07.95-3.41.21-2.07-4.38 6.71-9.58 2.71-11.69 1.29 1.69.41 3.49.11 4.53-.6 1.05-.72 1.67-1.25 2.23-1.12.56.12.93-.44.49-.94-.44-.5-1.49-1.19-2.92-.81-1.01.26-2.25 1.37-4.158.25-1.62-.96-1.61-1.74-1.61-2.24 0-.39.276-.94.78-1.1.626.06 1.12.23 1.65.5.01-.15.01-.34 0-.56.04-.09.02-.34-.05-.64-.05-.39-.14-.8-.29-1.14.63-1.15 2.42-1.49 2.56-1.59.256-.19.116-.29.2-.58.08-.27.136-1-1.97-.8-.95.09-1.564-1.13-1.775-1.46.23-1.34.92-2.29 2.067-2.94.02-.01.016-.02-.01-.03.23-.13-2.66 0-3.99 1.69-1.11-.26-2.086-.24-2.94-.05-.23 0-.51-.03-.83-.1z"/><path fill="#CC4B00" d="M4.225 8.44c-.523.417-.94.875-1.26 1.29-.34-3.897 1.514-5.32 1.514-5.32.04 1.19.9 2.183 1.49 2.713-.26-.053-.54-.137-.85-.264l1.01.51c-.4-.01-.95-.08-1.59-.35l1.09.55-.15.06c-.47.01-1.2-.06-2.21-.36l1.66.65-.15.09c-.32.15-.9.35-1.7.36l1.11.06zm6.73 11.133c.576.427 2.148 1.303 4.76.697 1.62-.375 1.632-1.117 2.403-.593-.436.16-.954.545-1.64 1.055-.967.72-3.152 1.008-4.3.757.663.72 1.544 1.37 2.685 1.84.447.18-8.465-1.56-7.758-6.01.478-3.01 4.67-2.57 4.67-2.57-.186.14-.904.22-1.11.79-.345.96-.348 2.51.29 4.02zm-7.49 4.02c-1.503-2.572-1.89-4.91-1.835-6.762.307-1.1.755-2.28.755-2.28s-.233.73-.233 3 .993 4.66.993 4.66-.084-.77-.084-1.87.25-1.89.25-1.89.03 1.34.59 3.43c.55 2.09 2.1 2.76 2.1 2.76s-.42-.7-.8-1.65c-.38-.94-.5-2.07-.5-2.07s.89 2.36 2.58 3.94c1.7 1.58 4.01 2.41 4.01 2.41s-.5-.29-1.28-1.04c-.77-.74-1.32-1.87-1.32-1.87s2.29 1.58 4.88 2.48c2.59.91 4.29.89 4.29.89s-.5-.14-2.39-.74c-1.9-.59-2.53-1.28-2.53-1.28s3.85 1.33 5.21 1.47c1.37.14 3.69.05 6.44-2.22 2.75-2.27 3.31-5.56 3.31-5.56s-.26 3.66-1.75 6.05c-1.49 2.39-2.91 3.63-5.84 4.82-.14.06-.27.11-.39.17-.91.22-1.83.35-2.73.41-5.39.46-10.59-1.89-13.69-7.19zm9.24-10.41c-.102-.297-.24-.563-.432-.756-.268-.272-.427-.564-.528-.88-.23-1.198-.266-2.214-.11-3.07.17.37.715 1.342 1.7 1.338 2.325-.01 2.372.023 2.387.305.046.86-.38 1.143-.54 1.265-.164.122-2.378 1.406-2.46 1.773-.002.013-.008.02-.017.024z"/><path fill="#FB3" d="M27.73 19.54l-.2.914c-.023.036-.92 3.518-3.717 5.495-2.796 1.97 1.584-1.81 1.985-3.54.4-1.73.39-1.96.39-2.51s-.298-2.93-.298-2.93.165-.22.31-.61c1.053-2.11.046-5.06.046-5.06 2.078 2.36 1.336 5.39.752 6.83l-.016.17c.54-1.29.83-2.55.98-3.67-.005-.21-.008-.44-.01-.68-.044-7.07-4.496-7.99-4.496-7.99.825.11 1.534.31 2.142.57-1.286-1.11-3.268-2.16-6.278-2.39 1.528-.01 6.92.29 8.21 3.71 1.012 1.04 1.44 2.27 1.61 3.06.12-1.95-.67-4.01-.67-4.01 3.745 6.82.448 12.18.405 12.15.028-.08-.014-2.06 0-2.36-.272.97-.675 2.1-1.145 2.81zm-16.026-7.55c.143-.12.416-.295.934-.437.933-.25 1 .992 2.708-.79.09-.04.098.048.174.017-.105.46-.378.648-.502.74-.163.123-2.377 1.406-2.458 1.773-.003.014-.01.02-.018.024-.1-.296-.24-.56-.43-.754-.18-.182-.31-.373-.408-.574z"/><path stroke="#000" stroke-opacity=".35" stroke-width=".5" d="M12.628 13.177c.094.28.153.584.19.88.068.305.093.555.052.638.008.218.006.41 0 .554-.4-.21-.783-.35-1.216-.44-.276.11-.815.25-.99.73-.083.23-.146.5-.185.79.09.46.41 1.06 1.57 1.74 1.9 1.12 3.14.01 4.15-.25 1.42-.37 2.48.31 2.91.81.43.49.06 1.05-.5.93-.18-.04-.36-.02-.56.06.02.01.03.02.05.03-.44.16-.96.54-1.64 1.05-.97.72-3.15 1.01-4.3.75l.06.06c2.3 1.57 7.17 4.79 11.3-1.55.73-1.35-.33 2.13-.22 2.06 1.51-.96 1.83-4.41 1.53-6.59.95.43 1.01 1.42 1.07 1.23.48-1.45.61-4.37.1-5.91.77.22 1.39 1.52 1.39 1.52-1.16-5.67-6.83-6.36-6.76-6.38 1.52-.44 3.05-.44 3.05-.44-.17-.24-.56-.46-1.04-.65-.94-.35-2.06-.6-3.36-.7.26 0 .64.01 1.1.04-.55-.12-.95-.19-.96-.2-.014-.02 1.77-.43 5.27.72 2.954.96 4.072 4.01 4.072 4.01s.04-.34-.08-.99c-.14-.5-.26-.81-.26-.81l.12.23c-.07-.27-.17-.57-.3-.9 0-.007.42-.027 1.362 2.36.612 1.556 1.113 5.72 1.113 5.72l.35-2.25S32.427 27 20.15 30.19l-.3.13c-.91.213-1.825.346-2.73.405-2.22.185-4.4-.1-6.42-.87-2.93-1.09-5.52-3.2-7.36-6.36-1.53-2.62-1.9-5-1.83-6.87-.32 1.29-.4 2.32-.4 2.32-.17-2.62.12-4.37.49-5.493-.5.89-.75 1.68-.75 1.68.353-2.006.79-3.33 1.223-4.204.03-.13.27-.64.74-1.26 0-.076.003-.157.003-.24-.25-3.74 1.54-5.12 1.54-5.12l.005.132.09-.076C4.5 5.54 5.34 6.53 5.93 7.06c.27.05.51.07.71.07.85-.19 1.83-.21 2.936.04 1.33-1.69 4.22-1.82 3.998-1.69.024 0 .03.01.006.03-1.14.64-1.832 1.59-2.062 2.93.02.03.04.07.07.11l.02-.14c.172.37.716 1.34 1.7 1.34 2.326-.01 2.373.02 2.39.3.042.83-.35 1.12-.524 1.25-.07.07-.135.116-.18.15-.12.093-1.41.85-2.07 1.37-.12.11-.2.203-.217.27-.002.013-.01.02-.02.024l-.02-.064c-.02.02-.04.04-.057.06z"/></g></svg>