<svg xmlns="http://www.w3.org/2000/svg" width="32" height="32" xmlns:xlink="http://www.w3.org/1999/xlink"><defs><circle id="a" cx="16" cy="16" r="6.563"/></defs><g fill="none" fill-rule="evenodd"><path fill="#F8E81C" d="M15.078 30.972c.305.02.612.028.922.028 8.284 0 15-6.716 15-15 0-2.353-.542-4.58-1.508-6.563H16l5.7 9.844-6.622 11.693z"/><path fill="#5EBF1C" d="M15.078 30.972l6.622-11.69-11.09.468L3.53 7.662C1.93 10.046 1 12.914 1 16c0 7.975 6.223 14.496 14.078 14.972z"/><path fill="#D0011B" d="M3.53 7.662l7.08 12.088L16 9.437h13.492C27.058 4.442 21.932 1 16 1 10.8 1 6.22 3.645 3.53 7.662z"/><use fill="#4990E2" xlink:href="#a"/><circle cx="16" cy="16" r="5.813" stroke="#000" stroke-opacity=".5" stroke-width="1.5"/><circle cx="16" cy="16" r="6.063" stroke="#FFF"/><circle cx="16" cy="16" r="6.813" stroke="#000" stroke-opacity=".4" stroke-width=".5"/><circle cx="16" cy="16" r="14.75" stroke="#000" stroke-opacity=".5" stroke-width=".5"/></g></svg>